<svg width="24" height="24" viewBox="0 0 24 24" fill="none" xmlns="http://www.w3.org/2000/svg">
  <path fill-rule="evenodd" clip-rule="evenodd" d="M9.92325 14.0417C9.30283 14.4848 8.48443 14.5367 7.81304 14.1754L7.45948 13.9851C7.41819 13.9629 7.37702 13.9408 7.33597 13.9187C6.2218 13.3193 5.20248 12.771 4.49075 12.2493C3.83119 11.7658 2.67174 10.7641 2.86031 9.1449C3.04888 7.52572 4.4075 6.81726 5.16051 6.4983C5.97309 6.15412 7.09114 5.85469 8.31323 5.52741C8.35825 5.51535 8.4034 5.50326 8.44869 5.49112L15.5037 3.60074C15.5397 3.5911 15.5758 3.5814 15.6121 3.57166C16.2591 3.39802 16.9436 3.21431 17.517 3.14842C18.1406 3.07675 19.2154 3.0698 20.0745 3.92891C20.9336 4.78802 20.9266 5.86276 20.855 6.48635C20.7891 7.05981 20.6054 7.74433 20.4317 8.39132C20.422 8.42758 20.4123 8.46372 20.4027 8.49972L18.5123 15.5547C18.5001 15.6 18.4881 15.6451 18.476 15.6902C18.1487 16.9123 17.8493 18.0303 17.5051 18.8429C17.1861 19.5959 16.4777 20.9545 14.8585 21.1431C13.2393 21.3317 12.2376 20.1722 11.7541 19.5126C11.2324 18.8009 10.6841 17.7816 10.0847 16.6674C10.0626 16.6264 10.0405 16.5852 10.0183 16.5439L9.82801 16.1904C9.46672 15.519 9.51858 14.7006 9.96173 14.0801L10.0579 13.9454L9.92325 14.0417ZM13.0909 9.44235C13.131 9.41857 13.1705 9.39541 13.2094 9.37289C14.1773 8.81243 14.7728 8.64372 15.0662 8.93718C15.3597 9.23064 15.191 9.82611 14.6305 10.794C14.608 10.8329 14.5848 10.8724 14.561 10.9125C13.9686 11.9114 12.9865 13.2864 11.6854 15.1079L11.5892 15.2426L11.7795 15.5962C13.0934 18.0378 13.7503 19.2586 14.6271 19.1565C15.504 19.0544 15.8628 17.7153 16.5804 15.0371L18.4708 7.98208C18.8693 6.49495 19.0685 5.75137 18.6603 5.34313C18.252 4.93488 17.5085 5.13412 16.0213 5.5326L8.96633 7.42297C6.28811 8.1406 4.949 8.49941 4.84688 9.37626C4.74477 10.2531 5.96558 10.91 8.40721 12.2239L8.76077 12.4142L8.89547 12.318C10.717 11.0169 12.092 10.0348 13.0909 9.44235Z" fill="#fff"/>
</svg>
