<svg width="24" height="24" viewBox="0 0 24 24" fill="none" xmlns="http://www.w3.org/2000/svg">
  <path d="M20.3303 4.42863C18.7535 3.70672 17.0888 3.19457 15.3789 2.90527C15.1449 3.32356 14.9332 3.75392 14.7446 4.19456C12.9232 3.92009 11.071 3.92009 9.24961 4.19456C9.06095 3.75397 8.84924 3.32361 8.61535 2.90527C6.90433 3.19702 5.2386 3.71038 3.66019 4.4324C0.526644 9.06854 -0.322811 13.5895 0.101917 18.0463C1.937 19.4022 3.99098 20.4333 6.17458 21.0949C6.66626 20.4336 7.10134 19.7321 7.47519 18.9977C6.76511 18.7325 6.07975 18.4053 5.42706 18.0199C5.59884 17.8953 5.76684 17.7669 5.92918 17.6424C7.82837 18.5355 9.90124 18.9986 12 18.9986C14.0987 18.9986 16.1715 18.5355 18.0707 17.6424C18.235 17.7764 18.403 17.9047 18.5729 18.0199C17.9189 18.4059 17.2323 18.7338 16.5209 18.9996C16.8943 19.7336 17.3294 20.4346 17.8216 21.0949C20.007 20.436 22.0626 19.4053 23.898 18.0482C24.3963 12.8797 23.0467 8.4003 20.3303 4.42863ZM8.01318 15.3054C6.82961 15.3054 5.85179 14.2313 5.85179 12.9099C5.85179 11.5886 6.79563 10.505 8.0094 10.505C9.22318 10.505 10.1934 11.5886 10.1727 12.9099C10.1519 14.2313 9.21941 15.3054 8.01318 15.3054ZM15.9867 15.3054C14.8013 15.3054 13.8272 14.2313 13.8272 12.9099C13.8272 11.5886 14.7711 10.505 15.9867 10.505C17.2024 10.505 18.1651 11.5886 18.1444 12.9099C18.1236 14.2313 17.193 15.3054 15.9867 15.3054Z" fill="#5865F2"/>
</svg>
