<svg width="24" height="24" viewBox="0 0 24 24" fill="none" xmlns="http://www.w3.org/2000/svg">
  <path fill-rule="evenodd" clip-rule="evenodd" d="M20.4633 3.48755C18.2183 1.23969 15.2325 0.00114047 12.0512 0C5.49578 0 0.160666 5.33454 0.158385 11.8917C0.157244 13.9878 0.70524 16.0338 1.74592 17.8369L0.0585938 24L6.3631 22.3463C8.10002 23.2941 10.0559 23.793 12.0461 23.7936H12.0512C18.6054 23.7936 23.9412 18.4585 23.9434 11.9013C23.9446 8.72347 22.7089 5.73542 20.4633 3.48755ZM12.0512 21.7852H12.0472C10.2738 21.7847 8.53399 21.3079 7.01605 20.4075L6.65507 20.1932L2.91376 21.1745L3.91224 17.5267L3.6773 17.1526C2.68794 15.5788 2.16504 13.7597 2.16618 11.8923C2.16846 6.44251 6.6026 2.00836 12.0552 2.00836C14.6954 2.0095 17.1771 3.03878 19.0434 4.90744C20.9098 6.77553 21.9368 9.25948 21.9357 11.9002C21.9333 17.3505 17.4992 21.7852 12.0512 21.7852ZM17.473 14.3824C17.1759 14.2336 15.715 13.5151 15.4424 13.4159C15.1698 13.3167 14.972 13.2671 14.7741 13.5647C14.5762 13.8624 14.0066 14.5319 13.8332 14.7297C13.6598 14.9281 13.4865 14.9527 13.1894 14.8038C12.8923 14.655 11.9349 14.3414 10.7996 13.3292C9.91626 12.5411 9.31974 11.5683 9.14644 11.2707C8.97308 10.973 9.1282 10.8122 9.27641 10.6645C9.40984 10.5311 9.57351 10.3172 9.72233 10.1439C9.87121 9.97052 9.92024 9.84625 10.0195 9.64834C10.1187 9.4499 10.0691 9.2766 9.99495 9.12772C9.92077 8.9789 9.32664 7.51622 9.07857 6.92149C8.83733 6.34214 8.59218 6.42084 8.41026 6.41114C8.23689 6.40259 8.03905 6.40088 7.8406 6.40088C7.64216 6.40088 7.32051 6.47501 7.04796 6.77267C6.77541 7.07031 6.00785 7.78937 6.00785 9.25145C6.00785 10.7135 7.07251 12.1272 7.22132 12.3256C7.37014 12.5241 9.31688 15.5252 12.2975 16.8128C13.0064 17.119 13.56 17.302 13.9917 17.4389C14.7034 17.6653 15.3511 17.6334 15.8632 17.5569C16.4341 17.4714 17.6213 16.8379 17.8687 16.1439C18.1162 15.4499 18.1162 14.8546 18.0421 14.7308C17.968 14.6071 17.7695 14.5324 17.4724 14.3836L17.473 14.3824Z" fill="#25D366"/>
</svg>
