<svg width="24" height="24" viewBox="0 0 24 24" fill="none" xmlns="http://www.w3.org/2000/svg">
  <path d="M12 0C5.36974 0 0 5.36974 0 12C0 17.3103 3.43513 21.7951 8.20487 23.3843C8.80487 23.4897 9.02922 23.1297 9.02922 22.8146C9.02922 22.5297 9.01461 21.5854 9.01461 20.5795C6 21.1346 5.22052 19.8449 4.98052 19.1708C4.84487 18.8254 4.26052 17.76 3.74922 17.4751C3.32974 17.2497 2.72974 16.6946 3.73461 16.68C4.68 16.6654 5.35513 17.5503 5.58052 17.9103C6.66052 19.7259 8.38539 19.2146 9.07513 18.8995C9.17948 18.12 9.49461 17.5951 9.84 17.2946C7.16974 16.9951 4.38052 15.96 4.38052 11.3697C4.38052 10.0654 4.84487 8.98539 5.60974 8.14539C5.48974 7.84487 5.07026 6.61461 5.72974 4.96487C5.72974 4.96487 6.73461 4.64974 9.03026 6.19513C9.99026 5.92487 11.0097 5.79026 12.0303 5.79026C13.0497 5.79026 14.0703 5.92591 15.0303 6.19513C17.3259 4.63513 18.3297 4.96487 18.3297 4.96487C18.9903 6.61461 18.5697 7.84487 18.4497 8.14539C19.2146 8.98539 19.68 10.0497 19.68 11.3697C19.68 15.9746 16.8751 16.9941 14.2049 17.2946C14.64 17.6703 15.0146 18.3903 15.0146 19.5151C15.0146 21.12 15 22.4097 15 22.8146C15 23.1297 15.2254 23.5054 15.8243 23.3854C20.5659 21.7951 24 17.2946 24 12C24 5.36974 18.6303 0 12 0Z" fill="#404040"/>
</svg>
