<svg width="432" height="432" viewBox="0 0 288 288" fill="none" xmlns="http://www.w3.org/2000/svg">
<g clip-path="url(#clip0_7434_5235)">
<g clip-path="url(#clip1_7434_5235)">
<g opacity="0.05">
<path d="M225 50.6181C225.307 50.3434 225.5 49.9443 225.5 49.5C225.5 48.6716 224.828 48 224 48C223.172 48 222.5 48.6716 222.5 49.5C222.5 49.9443 222.693 50.3434 223 50.6181V52C223 52.5523 223.448 53 224 53C224.552 53 225 52.5523 225 52V50.6181Z" fill="#151515"/>
<path fill-rule="evenodd" clip-rule="evenodd" d="M229.999 44.5356C230.645 44.9084 231.175 45.455 231.528 46.1144C232 46.9981 232 48.1654 232 50.5C232 52.8346 232 54.0019 231.528 54.8856C231.155 55.5833 230.583 56.1548 229.886 56.5277C229.002 57 227.835 57 225.5 57H222.5C220.165 57 218.998 57 218.114 56.5277C217.417 56.1548 216.845 55.5833 216.472 54.8856C216 54.0019 216 52.8346 216 50.5C216 48.1654 216 46.9981 216.472 46.1144C216.825 45.455 217.355 44.9084 218.001 44.5356C218 44.3757 218 44.1985 218 44C218 43.071 218 42.6065 218.062 42.2178C218.4 40.0784 220.078 38.4004 222.218 38.0616C222.606 38 223.071 38 224 38C224.929 38 225.394 38 225.782 38.0616C227.922 38.4004 229.6 40.0784 229.938 42.2178C230 42.6065 230 43.071 230 44C230 44.1985 230 44.3757 229.999 44.5356ZM220 44.0416L220 44C220 42.9946 220.006 42.7247 220.037 42.5307C220.24 41.247 221.247 40.2402 222.531 40.0369C222.725 40.0062 222.995 40 224 40C225.005 40 225.275 40.0062 225.469 40.0369C226.753 40.2402 227.76 41.247 227.963 42.5307C227.994 42.7247 228 42.9946 228 44L228 44.0416C227.346 44 226.538 44 225.5 44H222.5C221.462 44 220.654 44 220 44.0416ZM219.933 46.0518C220.522 46.0017 221.298 46 222.5 46H225.5C226.702 46 227.478 46.0017 228.067 46.0518C228.632 46.0999 228.84 46.1813 228.943 46.2362C229.292 46.4226 229.577 46.7084 229.764 47.0572C229.819 47.1599 229.9 47.3677 229.948 47.9326C229.998 48.5223 230 49.2983 230 50.5C230 51.7017 229.998 52.4777 229.948 53.0674C229.9 53.6323 229.819 53.8401 229.764 53.9428C229.577 54.2916 229.292 54.5774 228.943 54.7638C228.84 54.8187 228.632 54.9001 228.067 54.9482C227.478 54.9983 226.702 55 225.5 55H222.5C221.298 55 220.522 54.9983 219.933 54.9482C219.368 54.9001 219.16 54.8187 219.057 54.7638C218.708 54.5774 218.423 54.2916 218.236 53.9428C218.181 53.8401 218.1 53.6323 218.052 53.0674C218.002 52.4777 218 51.7017 218 50.5C218 49.2983 218.002 48.5223 218.052 47.9326C218.1 47.3677 218.181 47.1599 218.236 47.0572C218.423 46.7084 218.708 46.4226 219.057 46.2362C219.16 46.1813 219.368 46.0999 219.933 46.0518Z" fill="#151515"/>
</g>
<g opacity="0.05">
<path d="M236.654 146.967C236.511 146.434 236.827 145.885 237.361 145.743L243.156 144.19C243.69 144.047 244.238 144.363 244.381 144.897C244.524 145.43 244.208 145.979 243.674 146.121L237.879 147.674C237.345 147.817 236.797 147.501 236.654 146.967Z" fill="#151515"/>
<path d="M237.292 141.62C236.758 141.763 236.442 142.311 236.584 142.845C236.727 143.378 237.276 143.695 237.809 143.552L241.673 142.517C242.206 142.374 242.523 141.825 242.38 141.292C242.237 140.758 241.689 140.442 241.155 140.585L237.292 141.62Z" fill="#151515"/>
<path fill-rule="evenodd" clip-rule="evenodd" d="M237.67 135.307C232.389 136.722 229.098 141.952 230.47 147.071C231.842 152.191 237.306 155.075 242.588 153.659C243.122 153.516 243.438 152.968 243.295 152.435L243.027 151.433C245.188 150.68 247.004 149.426 248.241 147.907C249.656 146.17 250.357 144.017 249.789 141.895C248.417 136.776 242.952 133.892 237.67 135.307ZM241.553 149.796C243.773 149.201 245.569 148.022 246.691 146.644C247.814 145.265 248.217 143.758 247.857 142.413C246.798 138.463 242.509 136.081 238.188 137.239C233.868 138.396 231.344 142.604 232.402 146.554C233.38 150.204 237.118 152.515 241.09 151.931L240.846 151.02C240.703 150.487 241.019 149.939 241.553 149.796Z" fill="#151515"/>
</g>
<g opacity="0.05">
<path d="M10.6964 243.095C10.6704 243.293 10.7307 243.518 10.8513 243.968C10.9719 244.418 11.0322 244.643 11.1533 244.801C11.3148 245.011 11.5532 245.149 11.8161 245.183C12.0133 245.209 12.2384 245.149 12.6884 245.028L14.6203 244.511C15.0704 244.39 15.2954 244.33 15.4532 244.209C15.6636 244.047 15.8013 243.809 15.8359 243.546C15.8618 243.349 15.8015 243.124 15.681 242.674C15.5604 242.224 15.5001 241.999 15.379 241.841C15.2175 241.63 14.9791 241.493 14.7161 241.458C14.5189 241.432 14.2939 241.492 13.8438 241.613L11.912 242.131C11.4619 242.251 11.2369 242.312 11.0791 242.433C10.8687 242.594 10.731 242.833 10.6964 243.095Z" fill="#151515"/>
<path fill-rule="evenodd" clip-rule="evenodd" d="M5.7049 235.689C4.87647 237.124 5.3645 238.946 6.34057 242.588C7.31664 246.231 7.80467 248.052 9.23955 248.881C10.6744 249.709 12.4958 249.221 16.1385 248.245L20.0022 247.21C23.645 246.234 25.4663 245.746 26.2948 244.311C27.1232 242.876 26.6352 241.055 25.6591 237.412C24.683 233.769 24.195 231.948 22.7601 231.119C21.3252 230.291 19.5039 230.779 15.8611 231.755L11.9974 232.79C8.35469 233.766 6.53332 234.254 5.7049 235.689ZM16.3788 233.687L12.5151 234.722C10.6391 235.225 9.42754 235.554 8.56623 235.913C7.7585 236.251 7.5446 236.503 7.43695 236.689C7.32929 236.876 7.21778 237.187 7.32965 238.055C7.33484 238.095 7.3404 238.136 7.34635 238.178L22.5828 234.095C22.5672 234.056 22.5516 234.018 22.536 233.981C22.1988 233.173 21.9466 232.959 21.7601 232.851C21.5736 232.744 21.2623 232.632 20.3942 232.744C19.4685 232.863 18.2547 233.184 16.3788 233.687ZM8.27242 242.071C8.18038 241.727 8.09443 241.406 8.0147 241.104L23.4673 236.964C23.549 237.265 23.6352 237.586 23.7272 237.93C24.2299 239.805 24.5507 241.019 24.67 241.945C24.7819 242.813 24.6704 243.124 24.5627 243.311C24.4551 243.497 24.2412 243.75 23.4334 244.087C22.5721 244.446 21.3606 244.775 19.4846 245.278L15.6209 246.313C13.7449 246.816 12.5312 247.137 11.6055 247.256C10.7374 247.368 10.426 247.256 10.2396 247.149C10.0531 247.041 9.80083 246.827 9.46366 246.019C9.10412 245.158 8.77509 243.947 8.27242 242.071Z" fill="#151515"/>
</g>
<g opacity="0.05">
<path d="M36.7631 197.373C36.9167 196.83 37.0844 196.207 37.2777 195.485L38.313 191.621C38.8157 189.745 39.1365 188.532 39.2558 187.606C39.3676 186.738 39.2561 186.427 39.1485 186.24C39.0408 186.054 38.8269 185.801 38.0192 185.464C37.1579 185.105 35.9463 184.776 34.0704 184.273C32.1944 183.77 30.9806 183.449 30.055 183.33C29.1869 183.218 28.8755 183.33 28.689 183.437C28.5026 183.545 28.2503 183.759 27.9131 184.567C27.5536 185.428 27.2246 186.64 26.7219 188.516L25.6866 192.379C25.184 194.255 24.8631 195.469 24.7438 196.395C24.632 197.263 24.7435 197.574 24.8511 197.761C24.9588 197.947 25.1727 198.199 25.9804 198.536C26.8417 198.896 28.0533 199.225 29.9293 199.728C30.6508 199.921 31.2744 200.088 31.8213 200.226C32.3728 200.365 32.7135 200.928 32.5663 201.477C32.4278 201.994 31.9063 202.31 31.3872 202.179C30.7937 202.03 30.139 201.854 29.4116 201.66C25.7689 200.684 23.9475 200.195 23.1191 198.761C22.2907 197.326 22.7787 195.504 23.7548 191.862L24.79 187.998C25.7661 184.355 26.2541 182.534 27.689 181.705C29.1239 180.877 30.9453 181.365 34.588 182.341C38.2307 183.317 40.0521 183.805 40.8805 185.24C41.709 186.675 41.2209 188.496 40.2449 192.139L39.2096 196.003C39.0147 196.73 38.8393 197.385 38.6719 197.974C38.5255 198.488 37.9913 198.782 37.4743 198.644C36.9249 198.496 36.6083 197.92 36.7631 197.373Z" fill="#151515"/>
<path d="M36.1917 187.947C36.7252 188.09 37.0417 188.638 36.8988 189.172C36.7558 189.705 36.2075 190.022 35.674 189.879L29.8785 188.326C29.345 188.183 29.0284 187.635 29.1714 187.101C29.3143 186.568 29.8627 186.251 30.3961 186.394L36.1917 187.947Z" fill="#151515"/>
<path d="M35.1564 191.811C35.6899 191.954 36.0065 192.502 35.8635 193.036C35.7206 193.569 35.1722 193.886 34.6388 193.743L28.8432 192.19C28.3097 192.047 27.9932 191.499 28.1361 190.965C28.2791 190.432 28.8274 190.115 29.3609 190.258L35.1564 191.811Z" fill="#151515"/>
<path d="M37.2084 199.608C36.6749 199.465 36.1266 199.781 35.9836 200.315L35.7248 201.281L34.7589 201.022C34.2254 200.879 33.6771 201.195 33.5341 201.729C33.3912 202.262 33.7078 202.811 34.2413 202.954L35.2072 203.212L34.9484 204.178C34.8054 204.712 35.122 205.26 35.6555 205.403C36.1889 205.546 36.7373 205.23 36.8802 204.696L37.139 203.73L38.105 203.989C38.6384 204.132 39.1868 203.815 39.3297 203.282C39.4726 202.748 39.1561 202.2 38.6226 202.057L37.6567 201.798L37.9155 200.832C38.0584 200.299 37.7418 199.751 37.2084 199.608Z" fill="#151515"/>
<path d="M34.1211 195.675C34.6546 195.817 34.9712 196.366 34.8282 196.899C34.6853 197.433 34.137 197.749 33.6035 197.606L27.8079 196.053C27.2745 195.911 26.9579 195.362 27.1008 194.829C27.2438 194.295 27.7921 193.979 28.3256 194.122L34.1211 195.675Z" fill="#151515"/>
</g>
<g opacity="0.05">
<path d="M81.5 46C81.5 46.8284 80.8284 47.5 80 47.5C79.1716 47.5 78.5 46.8284 78.5 46C78.5 45.1716 79.1716 44.5 80 44.5C80.8284 44.5 81.5 45.1716 81.5 46Z" fill="#151515"/>
<path fill-rule="evenodd" clip-rule="evenodd" d="M71.1716 41.1716C70 42.3431 70 44.2288 70 48C70 51.7712 70 53.6569 71.1716 54.8284C72.3431 56 74.2288 56 78 56H82C85.7712 56 87.6569 56 88.8284 54.8284C90 53.6569 90 51.7712 90 48C90 44.2288 90 42.3431 88.8284 41.1716C87.6569 40 85.7712 40 82 40H78C74.2288 40 72.3431 40 71.1716 41.1716ZM82 42H78C76.0578 42 74.8024 42.0042 73.8774 42.1286C73.0099 42.2452 72.738 42.4335 72.5858 42.5858C72.5128 42.6588 72.4315 42.7592 72.3539 42.9396L75.0503 45.636C76.4036 46.9894 77.3489 47.9317 78.1568 48.5481C78.9417 49.1469 79.4781 49.3431 80 49.3431C80.5219 49.3431 81.0583 49.1469 81.8432 48.5481C82.6511 47.9317 83.5964 46.9894 84.9497 45.636L87.6461 42.9396C87.5685 42.7592 87.4872 42.6588 87.4142 42.5858C87.262 42.4335 86.9901 42.2452 86.1226 42.1286C85.1976 42.0042 83.9422 42 82 42ZM87.9791 45.4351L86.3122 47.102C85.0229 48.3914 83.9836 49.4307 83.0563 50.1382C82.0936 50.8727 81.135 51.3431 80 51.3431C78.865 51.3431 77.9064 50.8727 76.9437 50.1382C76.0164 49.4307 74.9771 48.3914 73.6878 47.102L72.0209 45.4351C72.0012 46.1322 72 46.9694 72 48C72 49.9422 72.0042 51.1976 72.1286 52.1226C72.2452 52.9901 72.4335 53.262 72.5858 53.4142C72.738 53.5665 73.0099 53.7548 73.8774 53.8714C74.8024 53.9958 76.0578 54 78 54H82C83.9422 54 85.1976 53.9958 86.1226 53.8714C86.9901 53.7548 87.262 53.5665 87.4142 53.4142C87.5665 53.262 87.7548 52.9901 87.8714 52.1226C87.9958 51.1976 88 49.9422 88 48C88 46.9694 87.9988 46.1322 87.9791 45.4351Z" fill="#151515"/>
</g>
<g opacity="0.05">
<path fill-rule="evenodd" clip-rule="evenodd" d="M30.5226 50.5096C30.038 51.0983 29.2609 51.3602 28.5189 51.185L28.1281 51.0927C28.0825 51.0819 28.037 51.0712 27.9916 51.0605C26.7603 50.7699 25.6338 50.5041 24.8113 50.1844C24.049 49.8881 22.6698 49.2206 22.4329 47.6078C22.196 45.995 23.3249 44.959 23.9697 44.456C24.6655 43.9132 25.668 43.3347 26.7637 42.7022C26.8041 42.6789 26.8446 42.6556 26.8852 42.6321L33.2105 38.9802C33.2428 38.9615 33.2752 38.9428 33.3077 38.924C33.8877 38.5889 34.5014 38.2342 35.0382 38.0222C35.622 37.7916 36.6583 37.5067 37.7105 38.1142C38.7627 38.7216 39.0342 39.7616 39.1263 40.3824C39.2111 40.9534 39.2108 41.6622 39.2106 42.332C39.2105 42.3696 39.2105 42.407 39.2105 42.4443L39.2105 49.7481C39.2105 49.795 39.2105 49.8418 39.2105 49.8884C39.2107 51.1535 39.2109 52.311 39.0887 53.185C38.9755 53.9949 38.6428 55.4905 37.1276 56.0918C35.6124 56.693 34.3448 55.8323 33.7071 55.3204C33.0189 54.7679 32.2254 53.9252 31.3581 53.0042C31.3262 52.9702 31.2941 52.9362 31.262 52.9021L30.9867 52.6098C30.4639 52.0548 30.3022 51.2508 30.5697 50.5369L30.6278 50.3819L30.5226 50.5096ZM32.3919 45.2472C32.4245 45.2139 32.4566 45.1813 32.4884 45.1495C33.2782 44.3576 33.8097 44.0405 34.1691 44.248C34.5286 44.4555 34.5197 45.0744 34.2289 46.1543C34.2172 46.1977 34.205 46.2419 34.1924 46.2868C33.8787 47.405 33.286 48.9872 32.5006 51.0835L32.4426 51.2385L32.7179 51.5308C34.6189 53.5492 35.5695 54.5583 36.39 54.2328C37.2105 53.9072 37.2105 52.5208 37.2105 49.7481L37.2105 42.4443C37.2105 40.9047 37.2105 40.1349 36.7105 39.8462C36.2105 39.5575 35.5439 39.9424 34.2105 40.7122L27.8852 44.3642C25.484 45.7505 24.2834 46.4437 24.4117 47.3171C24.54 48.1905 25.8892 48.5091 28.5877 49.1462L28.9785 49.2385L29.0837 49.1107C30.5064 47.3825 31.5803 46.078 32.3919 45.2472Z" fill="#151515"/>
</g>
<g opacity="0.05">
<path d="M273.862 52.6405C274.396 52.7834 274.712 53.3318 274.569 53.8652C274.426 54.3987 273.878 54.7153 273.345 54.5723L267.549 53.0194C267.016 52.8765 266.699 52.3281 266.842 51.7947C266.985 51.2612 267.533 50.9446 268.067 51.0876L273.862 52.6405Z" fill="#151515"/>
<path d="M274.898 48.7768C275.431 48.9197 275.748 49.4681 275.605 50.0015C275.462 50.535 274.913 50.8516 274.38 50.7086L268.584 49.1557C268.051 49.0128 267.734 48.4644 267.877 47.931C268.02 47.3975 268.569 47.0809 269.102 47.2239L274.898 48.7768Z" fill="#151515"/>
<path d="M269.896 41.5282C269.537 41.7353 269.415 42.1907 269.171 43.1013C268.927 44.012 268.805 44.4674 269.012 44.8261C269.22 45.1848 269.675 45.3068 270.586 45.5508C271.496 45.7948 271.952 45.9169 272.31 45.7097C272.669 45.5026 272.791 45.0473 273.035 44.1366C273.279 43.2259 273.401 42.7706 273.194 42.4119C272.987 42.0532 272.532 41.9311 271.621 41.6871C270.71 41.4431 270.255 41.3211 269.896 41.5282Z" fill="#151515"/>
<path fill-rule="evenodd" clip-rule="evenodd" d="M267.689 37.7054C266.254 38.5338 265.766 40.3552 264.79 43.9979L263.755 47.8616C262.779 51.5044 262.291 53.3257 263.119 54.7606C263.948 56.1955 265.769 56.6835 269.412 57.6596C273.054 58.6356 274.876 59.1237 276.311 58.2953C277.745 57.4668 278.234 55.6455 279.21 52.0027L280.245 48.139C281.221 44.4963 281.709 42.6749 280.881 41.24C280.052 39.8052 278.231 39.3171 274.588 38.3411C270.945 37.365 269.124 36.877 267.689 37.7054ZM278.313 47.6214C278.816 45.7454 279.136 44.5317 279.256 43.606C279.368 42.7379 279.256 42.4265 279.148 42.24C279.041 42.0536 278.827 41.8013 278.019 41.4641C277.158 41.1046 275.946 40.7756 274.07 40.2729C272.194 39.7702 270.981 39.4494 270.055 39.3301C269.187 39.2183 268.875 39.3298 268.689 39.4374C268.503 39.5451 268.25 39.759 267.913 40.5667C267.554 41.428 267.225 42.6396 266.722 44.5156L265.687 48.3793C265.184 50.2552 264.863 51.469 264.744 52.3947C264.632 53.2628 264.743 53.5741 264.851 53.7606C264.959 53.9471 265.173 54.1993 265.98 54.5365C266.842 54.896 268.053 55.2251 269.929 55.7277C271.805 56.2304 273.019 56.5512 273.945 56.6705C274.813 56.7824 275.124 56.6709 275.311 56.5632C275.497 56.4555 275.749 56.2416 276.086 55.4339C276.446 54.5726 276.775 53.3611 277.278 51.4851L278.313 47.6214Z" fill="#151515"/>
</g>
<g opacity="0.05">
<path d="M112.189 92.8435C112.046 92.3101 111.498 91.9935 110.965 92.1364C110.431 92.2794 110.115 92.8277 110.257 93.3612L111.034 96.2589C111.177 96.7924 111.725 97.109 112.259 96.966C112.792 96.8231 113.109 96.2748 112.966 95.7413L112.189 92.8435Z" fill="#151515"/>
<path d="M113.742 98.6391C113.599 98.1056 113.051 97.789 112.518 97.932C111.984 98.0749 111.667 98.6232 111.81 99.1567C111.953 99.6902 112.502 100.007 113.035 99.8638C113.569 99.7209 113.885 99.1725 113.742 98.6391Z" fill="#151515"/>
<path fill-rule="evenodd" clip-rule="evenodd" d="M104.272 98.0707C103.296 94.4279 102.808 92.6066 103.637 91.1717C104.465 89.7368 106.287 89.2488 109.929 88.2727C113.572 87.2966 115.393 86.8086 116.828 87.637C118.263 88.4655 118.751 90.2868 119.727 93.9296C120.703 97.5723 121.191 99.3937 120.363 100.829C119.535 102.263 117.713 102.751 114.07 103.728C110.428 104.704 108.606 105.192 107.171 104.363C105.737 103.535 105.249 101.713 104.272 98.0707ZM113.553 101.796C111.677 102.298 110.463 102.619 109.537 102.738C108.669 102.85 108.358 102.739 108.171 102.631C107.985 102.523 107.733 102.31 107.396 101.502C107.036 100.641 106.707 99.429 106.204 97.553C105.702 95.677 105.381 94.4633 105.262 93.5376C105.15 92.6695 105.261 92.3582 105.369 92.1717C105.476 91.9852 105.69 91.733 106.498 91.3958C107.359 91.0363 108.571 90.7072 110.447 90.2046C112.323 89.7019 113.537 89.3811 114.462 89.2618C115.33 89.1499 115.642 89.2614 115.828 89.3691C116.015 89.4767 116.267 89.6906 116.604 90.4984C116.964 91.3597 117.293 92.5712 117.795 94.4472C118.298 96.3232 118.619 97.5369 118.738 98.4626C118.85 99.3307 118.739 99.6421 118.631 99.8285C118.523 100.015 118.309 100.267 117.502 100.604C116.64 100.964 115.429 101.293 113.553 101.796Z" fill="#151515"/>
</g>
<g opacity="0.05">
<path d="M0 142C0 141.448 0.447715 141 1 141H4C4.55229 141 5 141.448 5 142C5 142.552 4.55229 143 4 143H1C0.447715 143 0 142.552 0 142Z" fill="#151515"/>
<path d="M1 145C0.447716 145 0 145.448 0 146C0 146.552 0.447716 147 1 147H5C5.55228 147 6 146.552 6 146C6 145.448 5.55228 145 5 145H1Z" fill="#151515"/>
<path d="M-2 142.5C-2 143.328 -2.67157 144 -3.5 144C-4.32843 144 -5 143.328 -5 142.5C-5 141.672 -4.32843 141 -3.5 141C-2.67157 141 -2 141.672 -2 142.5Z" fill="#151515"/>
<path d="M-3.5 144C-2.11929 144 -1 145.119 -1 146.5C-1 146.793 -1.26048 147 -1.55334 147H-5.44666C-5.73952 147 -6 146.793 -6 146.5C-6 145.119 -4.88071 144 -3.5 144Z" fill="#151515"/>
<path fill-rule="evenodd" clip-rule="evenodd" d="M-8.82843 137.172C-10 138.343 -10 140.229 -10 144C-10 147.771 -10 149.657 -8.82843 150.828C-7.65685 152 -5.77124 152 -2 152H2C5.77124 152 7.65685 152 8.82843 150.828C10 149.657 10 147.771 10 144C10 140.229 10 138.343 8.82843 137.172C7.65685 136 5.77124 136 2 136H-2C-5.77124 136 -7.65685 136 -8.82843 137.172ZM2 138H-2C-3.94216 138 -5.19758 138.004 -6.12259 138.129C-6.99007 138.245 -7.26197 138.434 -7.41421 138.586C-7.56646 138.738 -7.75476 139.01 -7.87139 139.877C-7.99575 140.802 -8 142.058 -8 144C-8 145.942 -7.99575 147.198 -7.87139 148.123C-7.75476 148.99 -7.56646 149.262 -7.41421 149.414C-7.26197 149.566 -6.99007 149.755 -6.12259 149.871C-5.19758 149.996 -3.94216 150 -2 150H2C3.94216 150 5.19758 149.996 6.12259 149.871C6.99007 149.755 7.26196 149.566 7.41421 149.414C7.56646 149.262 7.75476 148.99 7.87139 148.123C7.99575 147.198 8 145.942 8 144C8 142.058 7.99575 140.802 7.87139 139.877C7.75476 139.01 7.56646 138.738 7.41421 138.586C7.26196 138.434 6.99007 138.245 6.12259 138.129C5.19758 138.004 3.94216 138 2 138Z" fill="#151515"/>
</g>
<g opacity="0.05">
<path d="M288 142C288 141.448 288.448 141 289 141H292C292.552 141 293 141.448 293 142C293 142.552 292.552 143 292 143H289C288.448 143 288 142.552 288 142Z" fill="#151515"/>
<path d="M289 145C288.448 145 288 145.448 288 146C288 146.552 288.448 147 289 147H293C293.552 147 294 146.552 294 146C294 145.448 293.552 145 293 145H289Z" fill="#151515"/>
<path d="M286 142.5C286 143.328 285.328 144 284.5 144C283.672 144 283 143.328 283 142.5C283 141.672 283.672 141 284.5 141C285.328 141 286 141.672 286 142.5Z" fill="#151515"/>
<path d="M284.5 144C285.881 144 287 145.119 287 146.5C287 146.793 286.74 147 286.447 147H282.553C282.26 147 282 146.793 282 146.5C282 145.119 283.119 144 284.5 144Z" fill="#151515"/>
<path fill-rule="evenodd" clip-rule="evenodd" d="M279.172 137.172C278 138.343 278 140.229 278 144C278 147.771 278 149.657 279.172 150.828C280.343 152 282.229 152 286 152H290C293.771 152 295.657 152 296.828 150.828C298 149.657 298 147.771 298 144C298 140.229 298 138.343 296.828 137.172C295.657 136 293.771 136 290 136H286C282.229 136 280.343 136 279.172 137.172ZM290 138H286C284.058 138 282.802 138.004 281.877 138.129C281.01 138.245 280.738 138.434 280.586 138.586C280.434 138.738 280.245 139.01 280.129 139.877C280.004 140.802 280 142.058 280 144C280 145.942 280.004 147.198 280.129 148.123C280.245 148.99 280.434 149.262 280.586 149.414C280.738 149.566 281.01 149.755 281.877 149.871C282.802 149.996 284.058 150 286 150H290C291.942 150 293.198 149.996 294.123 149.871C294.99 149.755 295.262 149.566 295.414 149.414C295.566 149.262 295.755 148.99 295.871 148.123C295.996 147.198 296 145.942 296 144C296 142.058 295.996 140.802 295.871 139.877C295.755 139.01 295.566 138.738 295.414 138.586C295.262 138.434 294.99 138.245 294.123 138.129C293.198 138.004 291.942 138 290 138Z" fill="#151515"/>
</g>
<g opacity="0.05">
<path d="M122.653 191.362C122.119 191.505 121.803 192.054 121.945 192.587C122.088 193.121 122.637 193.437 123.17 193.294L127.034 192.259C127.567 192.116 127.884 191.568 127.741 191.034C127.598 190.501 127.05 190.184 126.516 190.327L122.653 191.362Z" fill="#151515"/>
<path d="M122.981 196.451C122.838 195.917 123.154 195.369 123.688 195.226L133.347 192.638C133.881 192.495 134.429 192.811 134.572 193.345C134.715 193.878 134.398 194.427 133.865 194.57L124.205 197.158C123.672 197.301 123.124 196.984 122.981 196.451Z" fill="#151515"/>
<path d="M129.255 187.826C129.048 188.185 129.17 188.64 129.414 189.551C129.658 190.461 129.78 190.917 130.139 191.124C130.498 191.331 130.953 191.209 131.864 190.965C132.774 190.721 133.23 190.599 133.437 190.24C133.644 189.881 133.522 189.426 133.278 188.515C133.034 187.605 132.912 187.149 132.553 186.942C132.194 186.735 131.739 186.857 130.828 187.101C129.918 187.345 129.462 187.467 129.255 187.826Z" fill="#151515"/>
<path fill-rule="evenodd" clip-rule="evenodd" d="M117.705 187.689C116.876 189.124 117.365 190.946 118.341 194.588C119.317 198.231 119.805 200.052 121.24 200.881C122.674 201.709 124.496 201.221 128.139 200.245L132.002 199.21C135.645 198.234 137.466 197.746 138.295 196.311C139.123 194.876 138.635 193.055 137.659 189.412C136.683 185.769 136.195 183.948 134.76 183.119C133.325 182.291 131.504 182.779 127.861 183.755L123.997 184.79C120.355 185.766 118.533 186.254 117.705 187.689ZM128.379 185.687L124.515 186.722C122.639 187.225 121.428 187.554 120.566 187.913C119.758 188.251 119.545 188.503 119.437 188.689C119.329 188.876 119.218 189.187 119.33 190.055C119.449 190.981 119.77 192.195 120.272 194.071C120.775 195.947 121.104 197.158 121.464 198.019C121.801 198.827 122.053 199.041 122.24 199.149C122.426 199.256 122.737 199.368 123.605 199.256C124.531 199.137 125.745 198.816 127.621 198.313L131.485 197.278C133.361 196.775 134.572 196.446 135.433 196.087C136.241 195.75 136.455 195.497 136.563 195.311C136.67 195.124 136.782 194.813 136.67 193.945C136.551 193.019 136.23 191.805 135.727 189.93C135.225 188.054 134.896 186.842 134.536 185.981C134.199 185.173 133.947 184.959 133.76 184.851C133.574 184.744 133.262 184.632 132.394 184.744C131.468 184.863 130.255 185.184 128.379 185.687Z" fill="#151515"/>
</g>
<g opacity="0.05">
<path d="M206 234H210C211.942 234 213.198 234.004 214.123 234.129C214.99 234.245 215.262 234.434 215.414 234.586C215.566 234.738 215.755 235.01 215.871 235.877C215.996 236.802 216 238.058 216 240C216 240.747 215.999 241.392 215.992 241.957C215.984 242.525 216.439 243 217.007 243C217.543 243 217.983 242.578 217.991 242.043C218 241.431 218 240.753 218 240C218 236.229 218 234.343 216.828 233.172C215.657 232 213.771 232 210 232H206C202.229 232 200.343 232 199.172 233.172C198 234.343 198 236.229 198 240C198 243.771 198 245.657 199.172 246.828C200.343 248 202.229 248 206 248H210C210.753 248 211.431 248 212.043 247.991C212.578 247.983 213 247.543 213 247.007C213 246.439 212.525 245.984 211.957 245.992C211.392 245.999 210.747 246 210 246H206C204.058 246 202.802 245.996 201.877 245.871C201.01 245.755 200.738 245.566 200.586 245.414C200.434 245.262 200.245 244.99 200.129 244.123C200.004 243.198 200 241.942 200 240C200 238.058 200.004 236.802 200.129 235.877C200.245 235.01 200.434 234.738 200.586 234.586C200.738 234.434 201.01 234.245 201.877 234.129C202.802 234.004 204.058 234 206 234Z" fill="#151515"/>
<path d="M217 244C217.552 244 218 244.448 218 245V246H219C219.552 246 220 246.448 220 247C220 247.552 219.552 248 219 248H218V249C218 249.552 217.552 250 217 250C216.448 250 216 249.552 216 249V248H215C214.448 248 214 247.552 214 247C214 246.448 214.448 246 215 246H216V245C216 244.448 216.448 244 217 244Z" fill="#151515"/>
<path d="M213 244C213.552 244 214 243.552 214 243C214 242.448 213.552 242 213 242H203C202.448 242 202 242.448 202 243C202 243.552 202.448 244 203 244H213Z" fill="#151515"/>
<path d="M207 238C207.552 238 208 238.448 208 239C208 239.552 207.552 240 207 240H203C202.448 240 202 239.552 202 239C202 238.448 202.448 238 203 238H207Z" fill="#151515"/>
<path d="M210 238C210 237.057 210 236.586 210.293 236.293C210.586 236 211.057 236 212 236C212.943 236 213.414 236 213.707 236.293C214 236.586 214 237.057 214 238C214 238.943 214 239.414 213.707 239.707C213.414 240 212.943 240 212 240C211.057 240 210.586 240 210.293 239.707C210 239.414 210 238.943 210 238Z" fill="#151515"/>
</g>
<g opacity="0.05">
<path fill-rule="evenodd" clip-rule="evenodd" d="M55.1716 89.1716C54 90.3431 54 92.2288 54 96C54 99.7712 54 101.657 55.1716 102.828C56.3431 104 58.2288 104 62 104H66C66.753 104 67.4308 104 68.0428 103.991C68.578 103.983 69 103.543 69 103.007C69 102.439 68.5253 101.984 67.9565 101.992C67.3924 101.999 66.747 102 66 102H62C60.0578 102 58.8024 101.996 57.8774 101.871C57.0099 101.755 56.738 101.566 56.5858 101.414C56.4335 101.262 56.2452 100.99 56.1286 100.123C56.0042 99.1976 56 97.9422 56 96C56 95.6444 56.0001 95.3118 56.0011 95H71.9989C71.9999 95.3118 72 95.6444 72 96C72 96.747 71.9994 97.3924 71.9915 97.9565C71.9836 98.5253 72.4385 99 73.0074 99C73.5426 99 73.9825 98.578 73.9907 98.0428C74 97.4308 74 96.753 74 96C74 92.2288 74 90.3431 72.8284 89.1716C71.6569 88 69.7712 88 66 88H62C58.2288 88 56.3431 88 55.1716 89.1716ZM66 90H62C60.0578 90 58.8024 90.0042 57.8774 90.1286C57.0099 90.2452 56.738 90.4335 56.5858 90.5858C56.4335 90.738 56.2452 91.0099 56.1286 91.8774C56.1232 91.9176 56.118 91.9585 56.1131 92H71.8869C71.882 91.9585 71.8768 91.9176 71.8714 91.8774C71.7548 91.0099 71.5665 90.738 71.4142 90.5858C71.262 90.4335 70.9901 90.2452 70.1226 90.1286C69.1976 90.0042 67.9422 90 66 90Z" fill="#151515"/>
<path d="M74 101C74 100.448 73.5523 100 73 100C72.4477 100 72 100.448 72 101V102H71C70.4477 102 70 102.448 70 103C70 103.552 70.4477 104 71 104H72V105C72 105.552 72.4477 106 73 106C73.5523 106 74 105.552 74 105V104H75C75.5523 104 76 103.552 76 103C76 102.448 75.5523 102 75 102H74V101Z" fill="#151515"/>
<path d="M58.0761 97.6173C58 97.8011 58 98.0341 58 98.5C58 98.9659 58 99.1989 58.0761 99.3827C58.1776 99.6277 58.3723 99.8224 58.6173 99.9239C58.8011 100 59.0341 100 59.5 100H61.5C61.9659 100 62.1989 100 62.3827 99.9239C62.6277 99.8224 62.8224 99.6277 62.9239 99.3827C63 99.1989 63 98.9659 63 98.5C63 98.0341 63 97.8011 62.9239 97.6173C62.8224 97.3723 62.6277 97.1776 62.3827 97.0761C62.1989 97 61.9659 97 61.5 97H59.5C59.0341 97 58.8011 97 58.6173 97.0761C58.3723 97.1776 58.1776 97.3723 58.0761 97.6173Z" fill="#151515"/>
</g>
<g opacity="0.05">
<path d="M154.252 136.706C154.662 136.319 154.671 135.671 154.273 135.272L152.707 133.707C152.317 133.316 151.683 133.316 151.293 133.707L150.693 134.307C150.308 134.692 150.302 135.314 150.679 135.707L152.196 137.285C152.577 137.681 153.205 137.696 153.604 137.319L154.252 136.706Z" fill="#151515"/>
<path d="M148.293 136.707C148.683 136.316 149.317 136.316 149.707 136.707L151.293 138.293C151.683 138.683 151.683 139.316 151.293 139.707L144.293 146.707C144.105 146.894 143.851 147 143.586 147H141.998C141.446 147 140.998 146.552 140.998 146V144.414C140.998 144.149 141.103 143.894 141.291 143.707L148.293 136.707Z" fill="#151515"/>
<path d="M144 152C141.586 152 139.977 151.996 138.78 151.835C137.64 151.681 137.177 151.42 136.879 151.121C136.58 150.822 136.318 150.36 136.165 149.22C136.004 148.022 136 146.413 136 144C136 141.586 136.004 139.977 136.165 138.78C136.318 137.64 136.58 137.177 136.879 136.879C137.177 136.58 137.64 136.318 138.78 136.165C139.977 136.004 141.586 136 144 136C144.552 136 145 135.552 145 135C145 134.448 144.552 134 144 134C139.286 134 136.929 134 135.464 135.464C134 136.929 134 139.286 134 144C134 148.714 134 151.071 135.464 152.535C136.929 154 139.286 154 144 154C148.714 154 151.071 154 152.536 152.535C154 151.071 154 148.714 154 144C154 143.448 153.552 143 153 143C152.448 143 152 143.448 152 144C152 146.413 151.996 148.022 151.835 149.22C151.682 150.36 151.42 150.822 151.121 151.121C150.823 151.42 150.36 151.681 149.22 151.835C148.023 151.996 146.414 152 144 152Z" fill="#151515"/>
</g>
<g opacity="0.05">
<path d="M140 8.89222C140 8.87595 140 8.86781 140 8.86718C139.999 8.33672 139.638 7.93319 139.111 7.87457C139.11 7.8745 139.091 7.87243 139.054 7.86831C138.96 7.85803 138.869 7.84695 138.78 7.835C137.64 7.68176 137.177 7.42024 136.879 7.12155C136.58 6.82285 136.318 6.35989 136.165 5.22009C136.153 5.13126 136.142 5.04016 136.132 4.94663C136.128 4.90911 136.126 4.89034 136.126 4.88972C136.067 4.36251 135.663 4.0009 135.133 4.00023C135.132 4.00023 135.124 4.00023 135.108 4.00023C135.093 4.00023 135.131 4.00023 135.13 4.00023C134.56 4.00106 134.08 4.53203 134.137 5.09992C134.137 5.10064 134.129 5.01747 134.132 5.05074C134.294 6.64808 134.656 7.72777 135.464 8.53576C136.272 9.34375 137.352 9.70595 138.949 9.86831C138.983 9.87169 138.9 9.86324 138.9 9.86331C139.468 9.92021 139.999 9.44047 140 8.86974C140 8.86902 140 8.90769 140 8.89222Z" fill="#151515"/>
<path d="M148.946 7.86831C148.909 7.87243 148.89 7.8745 148.889 7.87457C148.362 7.93319 148.001 8.33672 148 8.86718C148 8.86781 148 8.87595 148 8.89222C148 8.90769 148 8.86902 148 8.86974C148.001 9.44047 148.532 9.92021 149.1 9.86331C149.1 9.86324 149.017 9.87169 149.05 9.86831C150.648 9.70595 151.728 9.34375 152.536 8.53576C153.344 7.72777 153.706 6.64808 153.868 5.05074C153.871 5.01747 153.863 5.10063 153.863 5.09992C153.92 4.53203 153.44 4.00106 152.869 4.00023C152.869 4.00023 152.907 4.00023 152.892 4.00023C152.876 4.00023 152.868 4.00023 152.867 4.00023C152.336 4.0009 151.933 4.36251 151.874 4.88972C151.874 4.89034 151.872 4.90911 151.868 4.94663C151.858 5.04016 151.847 5.13126 151.835 5.22009C151.682 6.35989 151.42 6.82285 151.121 7.12155C150.823 7.42024 150.36 7.68176 149.22 7.835C149.131 7.84695 149.04 7.85803 148.946 7.86831Z" fill="#151515"/>
<path d="M151.868 -4.94617C151.872 -4.90865 151.874 -4.88988 151.874 -4.88926C151.933 -4.36205 152.336 -4.00044 152.867 -3.99977C152.868 -3.99977 152.876 -3.99977 152.892 -3.99977C152.907 -3.99977 152.869 -3.99977 152.869 -3.99977C153.44 -4.0006 153.92 -4.53157 153.863 -5.09946C153.863 -5.10017 153.871 -5.01701 153.868 -5.05028C153.706 -6.64762 153.344 -7.72731 152.536 -8.5353C151.728 -9.34329 150.648 -9.70549 149.05 -9.86785C149.017 -9.87123 149.1 -9.86278 149.1 -9.86285C148.532 -9.91975 148.001 -9.44001 148 -8.86928C148 -8.86856 148 -8.90724 148 -8.89176C148 -8.87549 148 -8.86735 148 -8.86672C148.001 -8.33626 148.362 -7.93273 148.889 -7.87411C148.89 -7.87404 148.909 -7.87198 148.946 -7.86785C149.04 -7.85757 149.131 -7.84649 149.22 -7.83455C150.36 -7.6813 150.823 -7.41979 151.121 -7.12109C151.42 -6.8224 151.682 -6.35943 151.835 -5.21963C151.847 -5.1308 151.858 -5.0397 151.868 -4.94617Z" fill="#151515"/>
<path d="M135.108 -3.99977C135.124 -3.99977 135.132 -3.99977 135.133 -3.99977C135.663 -4.00044 136.067 -4.36205 136.126 -4.88926C136.126 -4.88988 136.128 -4.90865 136.132 -4.94617C136.142 -5.0397 136.153 -5.1308 136.165 -5.21963C136.318 -6.35943 136.58 -6.8224 136.879 -7.12109C137.177 -7.41979 137.64 -7.6813 138.78 -7.83455C138.869 -7.84649 138.96 -7.85757 139.054 -7.86785C139.091 -7.87198 139.11 -7.87404 139.111 -7.87411C139.638 -7.93273 139.999 -8.33626 140 -8.86672C140 -8.86735 140 -8.87549 140 -8.89176C140 -8.90724 140 -8.86856 140 -8.86928C139.999 -9.44001 139.468 -9.91975 138.9 -9.86285C138.9 -9.86278 138.983 -9.87123 138.949 -9.86785C137.352 -9.70549 136.272 -9.34329 135.464 -8.5353C134.656 -7.72731 134.294 -6.64762 134.132 -5.05028C134.129 -5.01701 134.137 -5.10017 134.137 -5.09946C134.08 -4.53157 134.56 -4.0006 135.13 -3.99977C135.131 -3.99977 135.093 -3.99977 135.108 -3.99977Z" fill="#151515"/>
<path d="M136 0.000229836C136 -0.552055 136.448 -0.99977 137 -0.99977H151C151.552 -0.99977 152 -0.552055 152 0.000229836C152 0.552515 151.552 1.00023 151 1.00023H137C136.448 1.00023 136 0.552515 136 0.000229836Z" fill="#151515"/>
</g>
<g opacity="0.05">
<path d="M140 296.892C140 296.876 140 296.868 140 296.867C139.999 296.337 139.638 295.933 139.111 295.875C139.11 295.874 139.091 295.872 139.054 295.868C138.96 295.858 138.869 295.847 138.78 295.835C137.64 295.682 137.177 295.42 136.879 295.122C136.58 294.823 136.318 294.36 136.165 293.22C136.153 293.131 136.142 293.04 136.132 292.947C136.128 292.909 136.126 292.89 136.126 292.89C136.067 292.363 135.663 292.001 135.133 292C135.132 292 135.124 292 135.108 292C135.093 292 135.131 292 135.13 292C134.56 292.001 134.08 292.532 134.137 293.1C134.137 293.101 134.129 293.017 134.132 293.051C134.294 294.648 134.656 295.728 135.464 296.536C136.272 297.344 137.352 297.706 138.949 297.868C138.983 297.872 138.9 297.863 138.9 297.863C139.468 297.92 139.999 297.44 140 296.87C140 296.869 140 296.908 140 296.892Z" fill="#151515"/>
<path d="M148.946 295.868C148.909 295.872 148.89 295.874 148.889 295.875C148.362 295.933 148.001 296.337 148 296.867C148 296.868 148 296.876 148 296.892C148 296.908 148 296.869 148 296.87C148.001 297.44 148.532 297.92 149.1 297.863C149.1 297.863 149.017 297.872 149.05 297.868C150.648 297.706 151.728 297.344 152.536 296.536C153.344 295.728 153.706 294.648 153.868 293.051C153.871 293.017 153.863 293.101 153.863 293.1C153.92 292.532 153.44 292.001 152.869 292C152.869 292 152.907 292 152.892 292C152.876 292 152.868 292 152.867 292C152.336 292.001 151.933 292.363 151.874 292.89C151.874 292.89 151.872 292.909 151.868 292.947C151.858 293.04 151.847 293.131 151.835 293.22C151.682 294.36 151.42 294.823 151.121 295.122C150.823 295.42 150.36 295.682 149.22 295.835C149.131 295.847 149.04 295.858 148.946 295.868Z" fill="#151515"/>
<path d="M151.868 283.054C151.872 283.091 151.874 283.11 151.874 283.111C151.933 283.638 152.336 284 152.867 284C152.868 284 152.876 284 152.892 284C152.907 284 152.869 284 152.869 284C153.44 283.999 153.92 283.468 153.863 282.901C153.863 282.9 153.871 282.983 153.868 282.95C153.706 281.352 153.344 280.273 152.536 279.465C151.728 278.657 150.648 278.295 149.05 278.132C149.017 278.129 149.1 278.137 149.1 278.137C148.532 278.08 148.001 278.56 148 279.131C148 279.131 148 279.093 148 279.108C148 279.125 148 279.133 148 279.133C148.001 279.664 148.362 280.067 148.889 280.126C148.89 280.126 148.909 280.128 148.946 280.132C149.04 280.142 149.131 280.154 149.22 280.165C150.36 280.319 150.823 280.58 151.121 280.879C151.42 281.178 151.682 281.641 151.835 282.78C151.847 282.869 151.858 282.96 151.868 283.054Z" fill="#151515"/>
<path d="M135.108 284C135.124 284 135.132 284 135.133 284C135.663 284 136.067 283.638 136.126 283.111C136.126 283.11 136.128 283.091 136.132 283.054C136.142 282.96 136.153 282.869 136.165 282.78C136.318 281.641 136.58 281.178 136.879 280.879C137.177 280.58 137.64 280.319 138.78 280.165C138.869 280.154 138.96 280.142 139.054 280.132C139.091 280.128 139.11 280.126 139.111 280.126C139.638 280.067 139.999 279.664 140 279.133C140 279.133 140 279.125 140 279.108C140 279.093 140 279.131 140 279.131C139.999 278.56 139.468 278.08 138.9 278.137C138.9 278.137 138.983 278.129 138.949 278.132C137.352 278.295 136.272 278.657 135.464 279.465C134.656 280.273 134.294 281.352 134.132 282.95C134.129 282.983 134.137 282.9 134.137 282.901C134.08 283.468 134.56 283.999 135.13 284C135.131 284 135.093 284 135.108 284Z" fill="#151515"/>
<path d="M136 288C136 287.448 136.448 287 137 287H151C151.552 287 152 287.448 152 288C152 288.553 151.552 289 151 289H137C136.448 289 136 288.553 136 288Z" fill="#151515"/>
</g>
<g opacity="0.05">
<path d="M191.741 144.966C193.341 145.395 194.986 144.445 195.415 142.845C195.844 141.245 194.894 139.6 193.294 139.171C191.694 138.742 190.048 139.692 189.62 141.292C189.191 142.892 190.141 144.537 191.741 144.966Z" fill="#151515"/>
<path fill-rule="evenodd" clip-rule="evenodd" d="M195.072 151.138C196.139 150.07 197.256 148.877 198.173 147.726C199.036 146.642 199.918 145.358 200.245 144.139C201.388 139.871 198.856 135.485 194.588 134.341C190.32 133.198 185.934 135.73 184.79 139.998C184.463 141.217 184.586 142.771 184.791 144.14C185.009 145.596 185.38 147.187 185.77 148.645L185.809 148.79C186.107 149.906 186.395 150.984 186.775 151.803C187.217 152.756 187.951 153.726 189.297 154.086C190.643 154.447 191.763 153.975 192.623 153.37C193.362 152.851 194.15 152.061 194.967 151.243L195.072 151.138ZM198.313 143.621C197.892 145.192 195.74 147.64 193.657 149.724C191.84 151.544 190.931 152.454 189.815 152.155C188.699 151.856 188.367 150.613 187.702 148.129C186.941 145.282 186.301 142.087 186.722 140.516C187.58 137.315 190.87 135.415 194.07 136.273C197.271 137.131 199.171 140.421 198.313 143.621Z" fill="#151515"/>
</g>
<g opacity="0.05">
<path fill-rule="evenodd" clip-rule="evenodd" d="M98.9594 -11.6191L99.0177 -11.6107L99.1776 -11.5691L99.2943 -11.5198L99.3943 -11.4625L99.4902 -11.3913L99.5709 -11.3155L99.653 -11.2172L99.7129 -11.1254L101.834 -7.45113C102.11 -6.97284 101.946 -6.36125 101.468 -6.0851C101.027 -5.8302 100.472 -5.95023 100.172 -6.34639L100.102 -6.45113L99.1877 -8.03383L96.1893 3.15642C96.0464 3.68988 95.498 4.00646 94.9646 3.86352C94.4311 3.72058 94.1145 3.17224 94.2575 2.63878L97.2559 -8.55147L95.6726 -7.63802C95.1943 -7.36188 94.5827 -7.52575 94.3066 -8.00404C94.0517 -8.44555 94.1717 -9.00063 94.5679 -9.3006L94.6726 -9.37007L98.3469 -11.4914C98.3902 -11.5164 98.4346 -11.5378 98.4798 -11.5557L98.6058 -11.5962L98.7286 -11.6186L98.8395 -11.6255L98.9594 -11.6191Z" fill="#151515"/>
<path d="M94.1313 -4.61766C94.1334 -4.62557 94.1281 -4.6058 94.1281 -4.60588C94.2724 -5.14471 93.9246 -5.71879 93.3803 -5.84046C93.3802 -5.84048 93.424 -5.83068 93.4065 -5.8346C91.5863 -6.24108 90.4162 -6.29424 89.429 -5.7243C87.9942 -4.89588 87.5061 -3.07451 86.5301 0.568226C85.554 4.21096 85.066 6.03233 85.8944 7.46721C86.7228 8.90208 88.5442 9.39012 92.1869 10.3662L94.1188 10.8838C97.7615 11.8599 99.5829 12.3479 101.018 11.5195C102.453 10.6911 102.941 8.8697 103.917 5.22697C104.893 1.58423 105.381 -0.237133 104.552 -1.67201C103.982 -2.65916 102.943 -3.19817 101.163 -3.75626C101.146 -3.76164 101.189 -3.74819 101.189 -3.74821C100.656 -3.91504 100.068 -3.59175 99.9237 -3.05297C99.9236 -3.05289 99.9289 -3.07266 99.9268 -3.06475C99.9247 -3.05691 99.9237 -3.05305 99.9237 -3.05297C99.7823 -2.52514 100.067 -2.0053 100.588 -1.8407C100.588 -1.84067 100.598 -1.83773 100.616 -1.83183C101.029 -1.70152 101.383 -1.57667 101.691 -1.4479C102.499 -1.11073 102.713 -0.858477 102.82 -0.672011C102.928 -0.485546 103.04 -0.174181 102.928 0.693925C102.808 1.61961 102.488 2.83335 101.985 4.70933C101.482 6.58531 101.153 7.79686 100.794 8.65816C100.456 9.4659 100.204 9.67979 100.018 9.78745C99.8313 9.8951 99.5199 10.0066 98.6518 9.89475C97.7261 9.77546 96.5124 9.45464 94.6364 8.95197L92.7045 8.43433C90.8286 7.93167 89.617 7.60264 88.7557 7.2431C87.948 6.90592 87.7341 6.65367 87.6264 6.46721C87.5188 6.28074 87.4073 5.96938 87.5191 5.10127C87.6384 4.17559 87.9592 2.96185 88.4619 1.08586C88.9646 -0.790116 89.2936 -2.00166 89.6531 -2.86297C89.9903 -3.6707 90.2426 -3.8846 90.429 -3.99225C90.6155 -4.09991 90.9269 -4.21142 91.795 -4.09955C92.1265 -4.05683 92.495 -3.98826 92.9176 -3.89475C92.9367 -3.89052 92.9462 -3.8884 92.9463 -3.88839C93.4799 -3.77041 93.9866 -4.0781 94.1281 -4.60588C94.1281 -4.60596 94.1292 -4.60982 94.1313 -4.61766Z" fill="#151515"/>
</g>
<g opacity="0.05">
<path fill-rule="evenodd" clip-rule="evenodd" d="M98.9594 276.381L99.0177 276.39L99.1776 276.431L99.2943 276.481L99.3943 276.538L99.4902 276.609L99.5709 276.685L99.653 276.783L99.7129 276.875L101.834 280.549C102.11 281.028 101.946 281.639 101.468 281.915C101.027 282.17 100.472 282.05 100.172 281.654L100.102 281.549L99.1877 279.967L96.1893 291.157C96.0464 291.69 95.498 292.007 94.9646 291.864C94.4311 291.721 94.1145 291.173 94.2575 290.639L97.2559 279.449L95.6726 280.362C95.1943 280.639 94.5827 280.475 94.3066 279.996C94.0517 279.555 94.1717 279 94.5679 278.7L94.6726 278.63L98.3469 276.509C98.3902 276.484 98.4346 276.463 98.4798 276.445L98.6058 276.404L98.7286 276.382L98.8395 276.375L98.9594 276.381Z" fill="#151515"/>
<path d="M94.1313 283.383C94.1334 283.375 94.1281 283.395 94.1281 283.395C94.2724 282.856 93.9246 282.282 93.3803 282.16C93.3802 282.16 93.424 282.17 93.4065 282.166C91.5863 281.759 90.4162 281.706 89.429 282.276C87.9942 283.105 87.5061 284.926 86.5301 288.569C85.554 292.211 85.066 294.033 85.8944 295.468C86.7228 296.903 88.5442 297.391 92.1869 298.367L94.1188 298.884C97.7615 299.86 99.5829 300.348 101.018 299.52C102.453 298.692 102.941 296.87 103.917 293.227C104.893 289.585 105.381 287.763 104.552 286.328C103.982 285.341 102.943 284.802 101.163 284.244C101.146 284.239 101.189 284.252 101.189 284.252C100.656 284.085 100.068 284.409 99.9237 284.948C99.9236 284.948 99.9289 284.928 99.9268 284.936C99.9247 284.944 99.9237 284.947 99.9237 284.948C99.7823 285.475 100.067 285.995 100.588 286.16C100.588 286.16 100.598 286.163 100.616 286.169C101.029 286.299 101.383 286.424 101.691 286.553C102.499 286.89 102.713 287.142 102.82 287.328C102.928 287.515 103.04 287.826 102.928 288.694C102.808 289.62 102.488 290.834 101.985 292.71C101.482 294.586 101.153 295.797 100.794 296.659C100.456 297.466 100.204 297.68 100.018 297.788C99.8313 297.896 99.5199 298.007 98.6518 297.895C97.7261 297.776 96.5124 297.455 94.6364 296.952L92.7045 296.435C90.8286 295.932 89.617 295.603 88.7557 295.244C87.948 294.906 87.7341 294.654 87.6264 294.468C87.5188 294.281 87.4073 293.97 87.5191 293.102C87.6384 292.176 87.9592 290.962 88.4619 289.086C88.9646 287.21 89.2936 285.999 89.6531 285.138C89.9903 284.33 90.2426 284.116 90.429 284.008C90.6155 283.901 90.9269 283.789 91.795 283.901C92.1265 283.944 92.495 284.012 92.9176 284.106C92.9367 284.11 92.9462 284.112 92.9463 284.112C93.4799 284.23 93.9866 283.922 94.1281 283.395C94.1281 283.395 94.1292 283.391 94.1313 283.383Z" fill="#151515"/>
</g>
<g opacity="0.05">
<path d="M163.577 86.487C163.65 85.9917 163.342 85.5094 162.847 85.3767C162.313 85.2337 161.765 85.5503 161.622 86.0838L158.623 97.274L157.709 95.6913L157.64 95.5866C157.34 95.1904 156.784 95.0704 156.343 95.3253C155.865 95.6014 155.701 96.213 155.977 96.6913L158.098 100.366L158.158 100.457L158.228 100.542L158.321 100.631L158.391 100.685L158.491 100.747L158.632 100.809L158.763 100.845L158.82 100.855L158.934 100.865L159.083 100.859L159.205 100.836L159.285 100.813L159.361 100.783L159.464 100.732L163.139 98.6103L163.243 98.5408C163.639 98.2408 163.759 97.6857 163.505 97.2442C163.228 96.766 162.617 96.6021 162.139 96.8782L160.555 97.7926L163.554 86.6014L163.577 86.487Z" fill="#151515"/>
<path d="M152.93 102.217C154.045 102.682 155.598 103.103 157.93 103.728C160.261 104.352 161.816 104.765 163.014 104.919C164.155 105.066 164.67 104.933 165.036 104.722C165.401 104.511 165.774 104.131 166.217 103.07C166.361 102.724 166.501 102.337 166.644 101.897C166.812 101.38 167.35 101.076 167.875 101.216C168.417 101.361 168.736 101.925 168.564 102.46C167.893 104.537 167.224 105.768 166.036 106.454C164.242 107.49 161.965 106.88 157.412 105.659C152.858 104.439 150.582 103.829 149.546 102.036C148.86 100.847 148.896 99.4467 149.354 97.3123C149.472 96.7635 150.03 96.4346 150.572 96.5799C151.097 96.7204 151.411 97.2536 151.298 97.785C151.202 98.2374 151.129 98.6431 151.081 99.0144C150.934 100.155 151.067 100.67 151.278 101.036C151.489 101.402 151.869 101.774 152.93 102.217Z" fill="#151515"/>
</g>
<g opacity="0.05">
<path d="M130.897 48.7765C131.325 47.1761 130.376 45.5311 128.775 45.1023C127.175 44.6734 125.53 45.6232 125.101 47.2236C124.672 48.824 125.622 50.469 127.222 50.8978C128.823 51.3266 130.468 50.3769 130.897 48.7765Z" fill="#151515"/>
<path fill-rule="evenodd" clip-rule="evenodd" d="M118.228 47.8145C117.796 46.786 117.58 46.2718 117.846 45.2795C118.112 44.2873 118.556 43.95 119.445 43.2756C122.297 41.1107 126.085 40.2403 129.812 41.2389C133.539 42.2376 136.384 44.8851 137.772 48.1863C138.204 49.2147 138.42 49.729 138.154 50.7213C137.889 51.7135 137.444 52.0508 136.556 52.7252C133.703 54.8901 129.915 55.7605 126.188 54.7619C122.461 53.7632 119.617 51.1157 118.228 47.8145ZM120.654 44.8688C123.035 43.0614 126.189 42.3389 129.294 43.1708C132.399 44.0027 134.769 46.2055 135.928 48.9615C136.041 49.2297 136.117 49.411 136.175 49.5695C136.231 49.7205 136.253 49.8036 136.262 49.8529C136.27 49.8929 136.272 49.9187 136.27 49.9496C136.268 49.9862 136.26 50.0631 136.223 50.2036C136.185 50.3441 136.154 50.4148 136.137 50.4474C136.123 50.475 136.109 50.4965 136.082 50.5273C136.049 50.5652 135.988 50.6261 135.864 50.729C135.735 50.837 135.578 50.9562 135.346 51.132C132.965 52.9394 129.811 53.6619 126.706 52.83C123.601 51.9981 121.231 49.7953 120.072 47.0393C119.959 46.7711 119.884 46.5898 119.825 46.4313C119.769 46.2803 119.747 46.1972 119.738 46.1479C119.73 46.1079 119.728 46.0821 119.73 46.0512C119.732 46.0146 119.74 45.9377 119.778 45.7972C119.815 45.6567 119.847 45.586 119.863 45.5534C119.877 45.5258 119.892 45.5043 119.918 45.4735C119.951 45.4356 120.012 45.3747 120.136 45.2718C120.266 45.1638 120.422 45.0446 120.654 44.8688Z" fill="#151515"/>
</g>
<g opacity="0.05" clip-path="url(#clip2_7434_5235)">
<path fill-rule="evenodd" clip-rule="evenodd" d="M263.898 189.364L261.471 187.963C261.048 187.719 260.903 187.178 261.148 186.755C261.392 186.332 261.932 186.188 262.355 186.432L281.032 197.215C281.455 197.459 281.6 198 281.356 198.422C281.112 198.845 280.571 198.99 280.148 198.746L277.38 197.147C276.315 197.859 275.117 198.412 273.812 198.762C270.085 199.76 266.297 198.89 263.444 196.725C262.556 196.05 262.111 195.713 261.845 194.721C261.58 193.729 261.796 193.214 262.228 192.186C262.654 191.174 263.216 190.224 263.898 189.364ZM265.653 190.377C264.999 191.153 264.465 192.025 264.072 192.961C263.959 193.229 263.883 193.411 263.825 193.569C263.769 193.72 263.747 193.803 263.737 193.853C263.73 193.893 263.728 193.918 263.73 193.949C263.732 193.986 263.74 194.063 263.777 194.203C263.815 194.344 263.846 194.415 263.863 194.447C263.877 194.475 263.891 194.496 263.918 194.527C263.951 194.565 264.012 194.626 264.135 194.729C264.265 194.837 264.422 194.956 264.653 195.132C267.035 196.939 270.189 197.662 273.294 196.83C274.04 196.63 274.744 196.351 275.399 196.004L273.215 194.743C273.075 194.805 272.928 194.857 272.775 194.898C271.175 195.327 269.529 194.377 269.101 192.777C269.06 192.624 269.031 192.471 269.015 192.318L265.653 190.377Z" fill="#151515"/>
<path d="M266.299 187.076L268.241 188.197C268.996 187.756 269.821 187.408 270.706 187.171C273.81 186.339 276.965 187.061 279.346 188.869C279.578 189.044 279.734 189.164 279.864 189.271C279.988 189.374 280.048 189.435 280.081 189.473C280.108 189.504 280.122 189.526 280.137 189.553C280.153 189.586 280.185 189.656 280.222 189.797C280.26 189.937 280.268 190.014 280.27 190.051C280.271 190.082 280.27 190.108 280.262 190.148C280.252 190.197 280.231 190.28 280.175 190.431C280.116 190.59 280.04 190.771 279.928 191.039C279.488 192.086 278.873 193.052 278.11 193.895L279.875 194.914C280.66 193.982 281.3 192.936 281.771 191.814C282.204 190.786 282.42 190.272 282.154 189.279C281.888 188.287 281.444 187.95 280.555 187.275C277.702 185.11 273.915 184.24 270.188 185.239C268.749 185.624 267.442 186.256 266.299 187.076Z" fill="#151515"/>
<path d="M270.414 189.452L274.998 192.098C275.007 191.81 274.975 191.516 274.896 191.224C274.467 189.624 272.822 188.674 271.222 189.103C270.93 189.181 270.659 189.3 270.414 189.452Z" fill="#151515"/>
</g>
<g opacity="0.05">
<path d="M103.986 142.895L103.469 140.963C102.844 138.632 102.423 137.079 101.958 135.964C101.515 134.903 101.143 134.523 100.777 134.312C100.411 134.101 99.896 133.968 98.7554 134.115C97.731 134.247 96.4456 134.568 94.6372 135.048C94.1035 135.19 93.5548 134.874 93.4118 134.341C93.2689 133.807 93.5868 133.258 94.1205 133.116C98.0384 132.074 100.115 131.621 101.777 132.58C103.57 133.616 104.18 135.892 105.4 140.446L105.918 142.378C107.138 146.931 107.748 149.208 106.713 151.001C105.753 152.663 103.728 153.309 99.8142 154.365C99.281 154.509 98.7311 154.193 98.5882 153.659C98.4453 153.126 98.7624 152.578 99.2956 152.433C101.102 151.946 102.375 151.58 103.329 151.183C104.39 150.74 104.769 150.367 104.981 150.001C105.192 149.635 105.325 149.121 105.178 147.98C105.023 146.782 104.611 145.227 103.986 142.895Z" fill="#151515"/>
<path d="M89.346 141.383C89.6389 140.876 90.2875 140.702 90.7949 140.995C91.3022 141.288 91.476 141.936 91.1831 142.444L89.9456 144.587L99.6049 141.999C100.138 141.856 100.687 142.172 100.83 142.706C100.973 143.239 100.656 143.788 100.123 143.93L90.4633 146.519L92.6066 147.756C93.1139 148.049 93.2877 148.698 92.9948 149.205C92.7019 149.712 92.0532 149.886 91.5459 149.593L86.3408 146.588L89.346 141.383Z" fill="#151515"/>
</g>
<g opacity="0.05">
<path d="M183.468 44.9633L183.986 46.8952C184.611 49.2265 185.023 50.7817 185.178 51.9799C185.324 53.1205 185.192 53.6354 184.98 54.0012C184.769 54.3671 184.39 54.7395 183.328 55.1825C182.375 55.5804 181.102 55.9455 179.295 56.4335C178.762 56.5775 178.445 57.1256 178.588 57.659C178.731 58.1925 179.281 58.5091 179.814 58.3652C183.728 57.3089 185.753 56.6631 186.713 55.0012C187.748 53.2076 187.138 50.9309 185.918 46.3775L185.4 44.4457C184.18 39.8923 183.57 37.6155 181.777 36.58C180.115 35.6206 178.038 36.0738 174.12 37.116C173.587 37.2579 173.269 37.8071 173.412 38.3405C173.555 38.874 174.103 39.1901 174.637 39.0482C176.445 38.5676 177.731 38.2471 178.755 38.115C179.896 37.9681 180.411 38.1009 180.777 38.3121C181.142 38.5233 181.515 38.9028 181.958 39.9641C182.423 41.0789 182.844 42.632 183.468 44.9633Z" fill="#151515"/>
<path d="M179.864 46.9645L176.858 52.1697C176.565 52.677 175.917 52.8508 175.409 52.5579C174.902 52.265 174.728 51.6163 175.021 51.109L176.259 48.9657L166.599 51.5539C166.066 51.6968 165.518 51.3803 165.375 50.8468C165.232 50.3133 165.548 49.765 166.082 49.622L175.741 47.0339L173.598 45.7964C173.09 45.5035 172.917 44.8548 173.21 44.3475C173.502 43.8402 174.151 43.6664 174.658 43.9593C175.145 44.24 179.864 46.9645 179.864 46.9645Z" fill="#151515"/>
</g>
<g opacity="0.05">
<path d="M208 87C208 86.4477 207.551 85.9996 206.999 86.0006C202.944 86.0079 200.821 86.1076 199.464 87.4645C198 88.9289 198 91.286 198 96C198 100.714 198 103.071 199.464 104.536C200.929 106 203.286 106 208 106C212.714 106 215.071 106 216.536 104.536C217.892 103.179 217.992 101.056 217.999 97.0015C218 96.4492 217.552 96 217 96C216.448 96 216 96.4482 215.999 97.0005C215.995 98.8716 215.972 100.196 215.835 101.22C215.682 102.36 215.42 102.823 215.121 103.121C214.823 103.42 214.36 103.682 213.22 103.835C212.023 103.996 210.414 104 208 104C205.586 104 203.977 103.996 202.78 103.835C201.64 103.682 201.177 103.42 200.879 103.121C200.58 102.823 200.318 102.36 200.165 101.22C200.004 100.023 200 98.4136 200 96C200 93.5864 200.004 91.9775 200.165 90.7801C200.318 89.6403 200.58 89.1774 200.879 88.8787C201.177 88.58 201.64 88.3185 202.78 88.1652C203.804 88.0276 205.128 88.0045 206.999 88.0007C207.552 87.9996 208 87.5523 208 87Z" fill="#151515"/>
<path d="M216 92C216 90.8612 215.997 90.0635 215.956 89.4584L208.707 96.7071C208.317 97.0976 207.683 97.0976 207.293 96.7071C206.932 96.3466 206.905 95.7794 207.21 95.3871L207.293 95.2929L214.54 88.0443C213.935 88.0025 213.138 88 212 88H211C210.448 88 210 87.5523 210 87C210 86.4477 210.448 86 211 86H212C214.828 86 216.243 86 217.121 86.8787C218 87.7574 218 89.1716 218 92V93C218 93.5523 217.552 94 217 94C216.448 94 216 93.5523 216 93V92Z" fill="#151515"/>
</g>
<g opacity="0.05">
<path d="M78 189C77.4477 189 77 189.448 77 190V198C77 198.552 77.4477 199 78 199C78.5523 199 79 198.552 79 198V190C79 189.448 78.5523 189 78 189Z" fill="#151515"/>
<path d="M82 189C81.4477 189 81 189.448 81 190V198C81 198.552 81.4477 199 82 199C82.5523 199 83 198.552 83 198V190C83 189.448 82.5523 189 82 189Z" fill="#151515"/>
<path fill-rule="evenodd" clip-rule="evenodd" d="M86.9969 185H89C89.5523 185 90 185.448 90 186C90 186.552 89.5523 187 89 187H88V195C88 198.771 88 200.657 86.8284 201.828C85.6569 203 83.7712 203 80 203C76.2288 203 74.3431 203 73.1716 201.828C72 200.657 72 198.771 72 195V187H71C70.4477 187 70 186.552 70 186C70 185.448 70.4477 185 71 185H73.0031C73.0156 183.772 73.0791 183.059 73.4019 182.5C73.6652 182.044 74.0439 181.665 74.5 181.402C75.1962 181 76.1308 181 78 181H82C83.8692 181 84.8038 181 85.5 181.402C85.9561 181.665 86.3348 182.044 86.5981 182.5C86.9209 183.059 86.9844 183.772 86.9969 185ZM75.0033 185C75.0077 184.577 75.018 184.256 75.0421 183.991C75.0608 183.784 75.0842 183.661 75.1037 183.587C75.1208 183.522 75.134 183.5 75.134 183.5C75.2217 183.348 75.348 183.222 75.5 183.134C75.5 183.134 75.5217 183.121 75.5868 183.104C75.6608 183.084 75.7843 183.061 75.9906 183.042C76.4337 183.002 77.0286 183 78 183H82C82.9714 183 83.5663 183.002 84.0094 183.042C84.2157 183.061 84.3392 183.084 84.4132 183.104C84.4784 183.121 84.5 183.134 84.5 183.134C84.652 183.222 84.7783 183.348 84.866 183.5C84.866 183.5 84.8792 183.522 84.8963 183.587C84.9158 183.661 84.9392 183.784 84.9579 183.991C84.982 184.256 84.9923 184.577 84.9967 185H75.0033ZM86 187H74V195C74 196.942 74.0042 198.198 74.1286 199.123C74.2452 199.99 74.4335 200.262 74.5858 200.414C74.738 200.566 75.0099 200.755 75.8774 200.871C76.8024 200.996 78.0578 201 80 201C81.9422 201 83.1976 200.996 84.1226 200.871C84.9901 200.755 85.262 200.566 85.4142 200.414C85.5665 200.262 85.7548 199.99 85.8714 199.123C85.9958 198.198 86 196.942 86 195V187Z" fill="#151515"/>
</g>
<g opacity="0.05">
<path d="M51.4847 138.722L49.5528 138.205L50.5881 134.341L52.52 134.859L53.0376 132.927L51.1058 132.409L50.5881 134.341L48.6563 133.823L47.621 137.687L49.5528 138.205L49.0352 140.136L47.1034 139.619L46.5857 141.551L44.6539 141.033L44.1362 142.965L40.2725 141.93L40.7902 139.998L36.9265 138.962L35.8912 142.826L37.823 143.344L38.3407 141.412L40.2725 141.93L39.7549 143.861L43.6186 144.897L44.1362 142.965L46.0681 143.483L46.5857 141.551L48.5176 142.068L47.4823 145.932L45.5504 145.414L45.0328 147.346L46.9647 147.864L46.447 149.796L44.5152 149.278L42.9622 155.074L44.8941 155.591L45.4117 153.659L47.3436 154.177L47.8612 152.245L45.9294 151.728L46.447 149.796L48.3789 150.313L48.8965 148.382L46.9647 147.864L47.4823 145.932L49.4141 146.45L49.9318 144.518L51.8636 145.035L51.346 146.967L53.2778 147.485L53.7955 145.553L57.6592 146.588L57.1415 148.52L59.0734 149.038L60.1087 145.174L54.3131 143.621L53.7955 145.553L51.8636 145.035L52.3813 143.104L50.4494 142.586L51.4847 138.722Z" fill="#151515"/>
<path fill-rule="evenodd" clip-rule="evenodd" d="M54.9695 133.444L56.9013 133.962C59.6334 134.694 60.9994 135.06 61.6207 136.136C62.242 137.212 61.876 138.578 61.144 141.31L60.6263 143.242L52.8989 141.172L54.9695 133.444ZM56.3837 135.894C57.8043 136.274 58.6744 136.512 59.2821 136.766C59.8163 136.989 59.8804 137.119 59.888 137.135L59.8887 137.136L59.8894 137.137C59.8991 137.152 59.9802 137.273 59.9063 137.847C59.8221 138.5 59.5928 139.372 59.2121 140.793L55.3484 139.758L56.3837 135.894Z" fill="#151515"/>
<path fill-rule="evenodd" clip-rule="evenodd" d="M47.2421 131.374L45.3102 130.856C42.5782 130.124 41.2121 129.758 40.136 130.379C39.0598 131.001 38.6938 132.367 37.9618 135.099L37.4441 137.031L45.1715 139.101L47.2421 131.374ZM44.7926 132.788C43.3719 132.407 42.4997 132.178 41.8465 132.094C41.2724 132.02 41.1515 132.101 41.1372 132.111L41.136 132.111L41.1347 132.112C41.1192 132.12 40.9885 132.184 40.7655 132.718C40.5118 133.326 40.2743 134.196 39.8936 135.616L43.7573 136.652L44.7926 132.788Z" fill="#151515"/>
<path fill-rule="evenodd" clip-rule="evenodd" d="M35.3736 144.758L34.8559 146.69C34.1239 149.422 33.7578 150.788 34.3792 151.864C35.0005 152.94 36.3665 153.306 39.0986 154.038L41.0304 154.556L43.101 146.829L35.3736 144.758ZM36.7878 147.208C36.4071 148.628 36.1778 149.5 36.0936 150.154C36.0197 150.728 36.1008 150.849 36.1105 150.863L36.1112 150.864L36.1119 150.865C36.1195 150.881 36.1836 151.012 36.7178 151.235C37.3255 151.488 38.1956 151.726 39.6162 152.107L40.6515 148.243L36.7878 147.208Z" fill="#151515"/>
<path fill-rule="evenodd" clip-rule="evenodd" d="M48.7578 156.627L50.6897 157.144C53.4217 157.876 54.7878 158.242 55.8639 157.621C56.9401 157 57.3061 155.634 58.0381 152.902L58.5558 150.97L50.8284 148.899L48.7578 156.627ZM51.2073 155.212C52.6279 155.593 53.5002 155.822 54.1534 155.906C54.7275 155.98 54.8484 155.899 54.8627 155.89L54.8639 155.889L54.8652 155.888C54.8807 155.881 55.0114 155.817 55.2344 155.282C55.4881 154.675 55.7256 153.805 56.1063 152.384L52.2426 151.349L51.2073 155.212Z" fill="#151515"/>
</g>
<g opacity="0.05">
<path d="M188.257 -6.24387C188.114 -6.77733 188.43 -7.32567 188.964 -7.46861L190.895 -7.98625C191.429 -8.12919 191.977 -7.81261 192.12 -7.27914C192.263 -6.74568 191.947 -6.19734 191.413 -6.0544L189.481 -5.53676C188.948 -5.39382 188.399 -5.7104 188.257 -6.24387Z" fill="#151515"/>
<path d="M194.071 7.72739C194.871 7.51297 195.346 6.69047 195.131 5.89027C194.917 5.09007 194.094 4.61519 193.294 4.82961C192.494 5.04402 192.019 5.86653 192.234 6.66673C192.448 7.46692 193.27 7.9418 194.071 7.72739Z" fill="#151515"/>
<path fill-rule="evenodd" clip-rule="evenodd" d="M189.085 -10.6069L189.221 -10.6435C190.529 -10.994 191.608 -11.283 192.492 -11.397C193.421 -11.5166 194.283 -11.466 195.086 -11.0021C195.89 -10.5381 196.364 -9.81701 196.725 -8.95308C197.069 -8.13019 197.358 -7.05162 197.708 -5.74363L199.815 2.12012C200.166 3.42809 200.455 4.50664 200.569 5.39104C200.688 6.31954 200.638 7.18144 200.174 7.985C199.71 8.78857 198.989 9.26335 198.125 9.62399C197.302 9.96749 196.223 10.2565 194.915 10.6069L194.779 10.6434C193.471 10.9939 192.392 11.283 191.508 11.3969C190.58 11.5166 189.718 11.466 188.914 11.002C188.11 10.5381 187.636 9.81697 187.275 8.95304C186.932 8.13015 186.643 7.05158 186.292 5.74361L184.185 -2.12016C183.835 -3.42812 183.546 -4.5067 183.432 -5.39109C183.312 -6.31959 183.363 -7.18148 183.826 -7.98505C184.29 -8.78861 185.012 -9.2634 185.875 -9.62403C186.698 -9.96753 187.777 -10.2565 189.085 -10.6069ZM186.646 -7.77838C185.988 -7.50395 185.716 -7.25764 185.559 -6.98505C185.401 -6.71245 185.324 -6.35326 185.415 -5.64669C185.51 -4.91134 185.762 -3.96296 186.135 -2.56963L188.206 5.15778C188.579 6.55111 188.835 7.49839 189.121 8.1826C189.395 8.84003 189.641 9.11259 189.914 9.26997C190.187 9.42735 190.546 9.50438 191.252 9.41333C191.988 9.31857 192.936 9.06665 194.329 8.69331C195.723 8.31997 196.67 8.06395 197.354 7.77833C198.012 7.5039 198.284 7.25759 198.442 6.985C198.599 6.71241 198.676 6.35321 198.585 5.64665C198.49 4.9113 198.238 3.96292 197.865 2.56959L195.794 -5.15782C195.421 -6.55115 195.165 -7.49843 194.879 -8.18264C194.605 -8.84007 194.359 -9.11263 194.086 -9.27001C193.814 -9.42739 193.454 -9.50442 192.748 -9.41337C192.012 -9.31862 191.064 -9.0667 189.671 -8.69336C188.277 -8.32001 187.33 -8.06399 186.646 -7.77838Z" fill="#151515"/>
</g>
<g opacity="0.05">
<path d="M188.257 281.756C188.114 281.222 188.43 280.674 188.964 280.531L190.895 280.013C191.429 279.87 191.977 280.187 192.12 280.72C192.263 281.254 191.947 281.802 191.413 281.945L189.481 282.463C188.948 282.606 188.399 282.289 188.257 281.756Z" fill="#151515"/>
<path d="M194.071 295.727C194.871 295.512 195.346 294.69 195.131 293.89C194.917 293.09 194.094 292.615 193.294 292.829C192.494 293.044 192.019 293.866 192.234 294.666C192.448 295.466 193.27 295.941 194.071 295.727Z" fill="#151515"/>
<path fill-rule="evenodd" clip-rule="evenodd" d="M189.085 277.393L189.221 277.356C190.529 277.006 191.608 276.717 192.492 276.603C193.421 276.483 194.283 276.534 195.086 276.997C195.89 277.461 196.364 278.183 196.725 279.046C197.069 279.869 197.358 280.948 197.708 282.256L199.815 290.12C200.166 291.428 200.455 292.506 200.569 293.391C200.688 294.319 200.638 295.181 200.174 295.985C199.71 296.788 198.989 297.263 198.125 297.623C197.302 297.967 196.223 298.256 194.915 298.606L194.779 298.643C193.471 298.993 192.392 299.282 191.508 299.396C190.58 299.516 189.718 299.465 188.914 299.002C188.11 298.538 187.636 297.816 187.275 296.953C186.932 296.13 186.643 295.051 186.292 293.743L184.185 285.879C183.835 284.571 183.546 283.493 183.432 282.608C183.312 281.68 183.363 280.818 183.826 280.014C184.29 279.211 185.012 278.736 185.875 278.375C186.698 278.032 187.777 277.743 189.085 277.393ZM186.646 280.221C185.988 280.496 185.716 280.742 185.559 281.014C185.401 281.287 185.324 281.646 185.415 282.353C185.51 283.088 185.762 284.037 186.135 285.43L188.206 293.157C188.579 294.551 188.835 295.498 189.121 296.182C189.395 296.84 189.641 297.112 189.914 297.269C190.187 297.427 190.546 297.504 191.252 297.413C191.988 297.318 192.936 297.066 194.329 296.693C195.723 296.319 196.67 296.063 197.354 295.778C198.012 295.503 198.284 295.257 198.442 294.985C198.599 294.712 198.676 294.353 198.585 293.646C198.49 292.911 198.238 291.962 197.865 290.569L195.794 282.842C195.421 281.448 195.165 280.501 194.879 279.817C194.605 279.159 194.359 278.887 194.086 278.729C193.814 278.572 193.454 278.495 192.748 278.586C192.012 278.681 191.064 278.933 189.671 279.306C188.277 279.679 187.33 279.936 186.646 280.221Z" fill="#151515"/>
</g>
<g opacity="0.05">
<path d="M251.203 97.313C251.185 97.3025 251.179 97.2792 251.189 97.261C251.256 97.1481 251.331 97.0437 251.414 96.9482C251.791 96.5129 252.324 96.261 252.879 96.2287C253.045 96.219 253.213 96.2289 253.378 96.2594C253.603 96.3006 253.825 96.3795 254.035 96.4985L254.068 96.5174L255.293 97.2246L257.768 92.938L257.787 92.905C257.909 92.697 258.062 92.5177 258.236 92.3696C258.365 92.2603 258.505 92.1679 258.653 92.0935C259.15 91.844 259.737 91.7955 260.282 91.9839C260.401 92.0252 260.519 92.078 260.633 92.1425C260.651 92.153 260.657 92.1763 260.647 92.1945L256.069 100.122L251.203 97.313Z" fill="#151515"/>
<path fill-rule="evenodd" clip-rule="evenodd" d="M253.654 86.3066C253.49 86.3094 253.329 86.3525 253.185 86.4322L245.976 90.4346C245.574 90.6573 245.376 91.1245 245.495 91.5677L246.027 93.5532C246.519 95.3893 246.792 96.4077 247.182 97.3407C248.464 100.404 250.726 102.955 253.614 104.594C254.494 105.093 255.472 105.486 257.236 106.194L257.318 106.227L257.359 106.243C257.506 106.303 257.689 106.377 257.877 106.414C258.485 106.534 259.115 106.365 259.581 105.957C259.726 105.831 259.847 105.676 259.945 105.55L259.972 105.515L260.027 105.446C261.2 103.951 261.851 103.122 262.363 102.249C264.045 99.3861 264.728 96.0458 264.307 92.7522C264.179 91.7489 263.906 90.7305 263.414 88.8945L262.882 86.909C262.763 86.4657 262.358 86.1602 261.899 86.1679L253.654 86.3066ZM247.936 92.9508L247.629 91.8042L253.937 88.3021L261.152 88.1808L261.459 89.3273C261.98 91.2703 262.214 92.1524 262.323 93.0059C262.688 95.8603 262.096 98.7552 260.639 101.237C260.203 101.979 259.641 102.698 258.399 104.28C258.331 104.367 258.295 104.413 258.268 104.445L258.264 104.449L258.259 104.448C258.219 104.433 258.165 104.412 258.063 104.371C256.196 103.621 255.35 103.279 254.601 102.855C252.099 101.434 250.138 99.223 249.027 96.5685C248.695 95.7748 248.457 94.8938 247.936 92.9508Z" fill="#151515"/>
</g>
<g opacity="0.05">
<path d="M44.4731 -8.06982C44.355 -7.80909 44.4401 -7.49154 44.6102 -6.85645C44.7804 -6.22136 44.8655 -5.90381 45.0982 -5.73708C45.1408 -5.70656 45.1863 -5.68029 45.234 -5.65867C45.4947 -5.54053 45.8123 -5.62562 46.4474 -5.79579C47.0825 -5.96596 47.4 -6.05105 47.5667 -6.28372C47.5973 -6.32632 47.6235 -6.37181 47.6451 -6.41954C47.7633 -6.68027 47.6782 -6.99782 47.508 -7.63291C47.3379 -8.268 47.2528 -8.58555 47.0201 -8.75228C46.9775 -8.7828 46.932 -8.80907 46.8843 -8.83069C46.6235 -8.94883 46.306 -8.86374 45.6709 -8.69357C45.0358 -8.5234 44.7183 -8.43831 44.5515 -8.20564C44.521 -8.16304 44.4947 -8.11755 44.4731 -8.06982Z" fill="#151515"/>
<path d="M45.9043 -2.02682C45.7342 -2.66192 45.6491 -2.97946 45.7672 -3.24019C45.7888 -3.28792 45.8151 -3.33341 45.8456 -3.37601C46.0124 -3.60868 46.3299 -3.69377 46.965 -3.86394C47.6001 -4.03411 47.9176 -4.1192 48.1784 -4.00106C48.2261 -3.97944 48.2716 -3.95317 48.3142 -3.92265C48.5469 -3.75592 48.6319 -3.43837 48.8021 -2.80328C48.9723 -2.16819 49.0574 -1.85064 48.9392 -1.58991C48.9176 -1.54218 48.8914 -1.49669 48.8608 -1.45409C48.6941 -1.22142 48.3766 -1.13633 47.7415 -0.966162C47.1064 -0.795989 46.7888 -0.710903 46.5281 -0.829039C46.4804 -0.850665 46.4349 -0.876929 46.3923 -0.907452C46.1596 -1.07418 46.0745 -1.39173 45.9043 -2.02682Z" fill="#151515"/>
<path d="M47.1984 2.80281C47.0283 2.16771 46.9432 1.85017 47.0613 1.58944C47.0829 1.54171 47.1092 1.49622 47.1397 1.45362C47.3065 1.22095 47.624 1.13586 48.2591 0.96569C48.8942 0.795517 49.2117 0.710431 49.4725 0.828566C49.5202 0.850193 49.5657 0.876457 49.6083 0.90698C49.841 1.07371 49.926 1.39126 50.0962 2.02635C50.2664 2.66144 50.3515 2.97899 50.2333 3.23972C50.2117 3.28745 50.1854 3.33294 50.1549 3.37554C49.9882 3.60821 49.6706 3.6933 49.0356 3.86347C48.4005 4.03364 48.0829 4.11873 47.8222 4.00059C47.7745 3.97896 47.729 3.9527 47.6864 3.92218C47.4537 3.75545 47.3686 3.4379 47.1984 2.80281Z" fill="#151515"/>
<path d="M48.4925 7.63244C48.3224 6.99734 48.2373 6.6798 48.3554 6.41907C48.377 6.37134 48.4033 6.32585 48.4338 6.28325C48.6006 6.05058 48.9181 5.96549 49.5532 5.79532C50.1883 5.62515 50.5058 5.54006 50.7666 5.6582C50.8143 5.67982 50.8598 5.70609 50.9024 5.73661C51.1351 5.90334 51.2201 6.22089 51.3903 6.85598C51.5605 7.49107 51.6456 7.80862 51.5274 8.06935C51.5058 8.11708 51.4795 8.16257 51.449 8.20517C51.2823 8.43784 50.9647 8.52292 50.3296 8.6931C49.6946 8.86327 49.377 8.94836 49.1163 8.83022C49.0685 8.80859 49.0231 8.78233 48.9805 8.75181C48.7478 8.58508 48.6627 8.26753 48.4925 7.63244Z" fill="#151515"/>
<path d="M51.0798 -4.6637C50.9617 -4.40297 51.0468 -4.08542 51.2169 -3.45033C51.3871 -2.81523 51.4722 -2.49769 51.7049 -2.33096C51.7475 -2.30043 51.793 -2.27417 51.8407 -2.25254C52.1014 -2.13441 52.419 -2.21949 53.0541 -2.38967C53.6891 -2.55984 54.0067 -2.64493 54.1734 -2.8776C54.2039 -2.92019 54.2302 -2.96568 54.2518 -3.01342C54.37 -3.27415 54.2849 -3.59169 54.1147 -4.22678C53.9445 -4.86188 53.8595 -5.17942 53.6268 -5.34615C53.5842 -5.37668 53.5387 -5.40294 53.491 -5.42457C53.2302 -5.5427 52.9127 -5.45762 52.2776 -5.28744C51.6425 -5.11727 51.325 -5.03219 51.1582 -4.79951C51.1277 -4.75692 51.1014 -4.71143 51.0798 -4.6637Z" fill="#151515"/>
<path d="M52.511 1.3793C52.3409 0.74421 52.2558 0.426664 52.3739 0.165933C52.3955 0.118202 52.4218 0.0727117 52.4523 0.0301172C52.619 -0.202556 52.9366 -0.287642 53.5717 -0.457815C54.2068 -0.627988 54.5243 -0.713074 54.7851 -0.594938C54.8328 -0.573312 54.8783 -0.547048 54.9209 -0.516525C55.1535 -0.349794 55.2386 -0.0322476 55.4088 0.602845C55.579 1.23794 55.6641 1.55548 55.5459 1.81621C55.5243 1.86395 55.498 1.90944 55.4675 1.95203C55.3008 2.1847 54.9832 2.26979 54.3481 2.43996C53.7131 2.61014 53.3955 2.69522 53.1348 2.57709C53.087 2.55546 53.0416 2.5292 52.999 2.49867C52.7663 2.33194 52.6812 2.0144 52.511 1.3793Z" fill="#151515"/>
<path d="M40.4546 -1.81669C40.3365 -1.55596 40.4216 -1.23841 40.5917 -0.603317C40.7619 0.0317755 40.847 0.349322 41.0797 0.516053C41.1223 0.546576 41.1678 0.57284 41.2155 0.594466C41.4762 0.712602 41.7938 0.627516 42.4289 0.457343C43.064 0.28717 43.3815 0.202084 43.5482 -0.0305893C43.5788 -0.0731838 43.605 -0.118674 43.6266 -0.166405C43.7448 -0.427135 43.6597 -0.744682 43.4895 -1.37977C43.3194 -2.01487 43.2343 -2.33241 43.0016 -2.49915C42.959 -2.52967 42.9135 -2.55593 42.8658 -2.57756C42.605 -2.69569 42.2875 -2.61061 41.6524 -2.44043C41.0173 -2.27026 40.6998 -2.18518 40.533 -1.9525C40.5025 -1.90991 40.4763 -1.86442 40.4546 -1.81669Z" fill="#151515"/>
<path d="M41.8858 4.22631C41.7157 3.59122 41.6306 3.27367 41.7487 3.01294C41.7703 2.96521 41.7966 2.91972 41.8271 2.87713C41.9939 2.64445 42.3114 2.55937 42.9465 2.38919C43.5816 2.21902 43.8991 2.13394 44.1599 2.25207C44.2076 2.2737 44.2531 2.29996 44.2957 2.33048C44.5284 2.49722 44.6134 2.81476 44.7836 3.44986C44.9538 4.08495 45.0389 4.40249 44.9207 4.66322C44.8991 4.71096 44.8729 4.75645 44.8423 4.79904C44.6756 5.03171 44.3581 5.1168 43.723 5.28697C43.0879 5.45715 42.7703 5.54223 42.5096 5.4241C42.4619 5.40247 42.4164 5.37621 42.3738 5.34568C42.1411 5.17895 42.056 4.86141 41.8858 4.22631Z" fill="#151515"/>
<path d="M39.1605 -6.64632C39.0424 -6.38559 39.1275 -6.06804 39.2977 -5.43295C39.4678 -4.79785 39.5529 -4.48031 39.7856 -4.31358C39.8282 -4.28305 39.8737 -4.25679 39.9214 -4.23516C40.1821 -4.11703 40.4997 -4.20211 41.1348 -4.37229C41.7699 -4.54246 42.0874 -4.62755 42.2541 -4.86022C42.2847 -4.90281 42.3109 -4.9483 42.3326 -4.99604C42.4507 -5.25676 42.3656 -5.57431 42.1954 -6.2094C42.0253 -6.8445 41.9402 -7.16204 41.7075 -7.32877C41.6649 -7.3593 41.6194 -7.38556 41.5717 -7.40719C41.311 -7.52532 40.9934 -7.44024 40.3583 -7.27006C39.7232 -7.09989 39.4057 -7.01481 39.2389 -6.78213C39.2084 -6.73954 39.1822 -6.69405 39.1605 -6.64632Z" fill="#151515"/>
<path d="M49.9228 -8.27996C49.7527 -8.91505 49.6676 -9.2326 49.7857 -9.49333C49.8073 -9.54106 49.8336 -9.58655 49.8641 -9.62914C50.0309 -9.86182 50.3484 -9.9469 50.9835 -10.1171C51.6186 -10.2872 51.9361 -10.3723 52.1969 -10.2542C52.2446 -10.2326 52.2901 -10.2063 52.3327 -10.1758C52.5654 -10.0091 52.6504 -9.69151 52.8206 -9.05641C52.9908 -8.42132 53.0759 -8.10377 52.9577 -7.84305C52.9361 -7.79531 52.9098 -7.74982 52.8793 -7.70723C52.7126 -7.47456 52.395 -7.38947 51.76 -7.2193C51.1249 -7.04912 50.8073 -6.96404 50.5466 -7.08217C50.4989 -7.1038 50.4534 -7.13006 50.4108 -7.16059C50.1781 -7.32732 50.093 -7.64486 49.9228 -8.27996Z" fill="#151515"/>
<path d="M53.4555 4.87306C53.3357 5.00014 53.277 5.17359 53.1596 5.52049C53.015 5.9481 52.9427 6.16191 52.9821 6.36865C52.9894 6.40718 52.9996 6.44511 53.0125 6.48214C53.0817 6.68089 53.2513 6.82989 53.5903 7.12788C53.8654 7.36963 54.003 7.49051 54.1703 7.54063C54.2017 7.55003 54.2336 7.5575 54.266 7.56298C54.4382 7.59222 54.615 7.54483 54.9688 7.45005L55.6422 7.26959C56.2773 7.09942 56.5949 7.01433 56.7616 6.78166C56.7921 6.73906 56.8184 6.69358 56.84 6.64584C56.9582 6.38511 56.8731 6.06757 56.7029 5.43247C56.5327 4.79738 56.4476 4.47984 56.215 4.3131C56.1724 4.28258 56.1269 4.25632 56.0792 4.23469C55.8184 4.11656 55.5009 4.20164 54.8658 4.37181L54.1923 4.55227C53.8386 4.64705 53.6617 4.69444 53.5272 4.80588C53.5019 4.82678 53.478 4.84922 53.4555 4.87306Z" fill="#151515"/>
</g>
<g opacity="0.05">
<path d="M44.4731 279.93C44.355 280.19 44.4401 280.508 44.6102 281.143C44.7804 281.778 44.8655 282.096 45.0982 282.262C45.1408 282.293 45.1863 282.319 45.234 282.341C45.4947 282.459 45.8123 282.374 46.4474 282.204C47.0825 282.034 47.4 281.948 47.5667 281.716C47.5973 281.673 47.6235 281.628 47.6451 281.58C47.7633 281.319 47.6782 281.002 47.508 280.367C47.3379 279.732 47.2528 279.414 47.0201 279.247C46.9775 279.217 46.932 279.19 46.8843 279.169C46.6235 279.051 46.306 279.136 45.6709 279.306C45.0358 279.476 44.7183 279.561 44.5515 279.794C44.521 279.836 44.4947 279.882 44.4731 279.93Z" fill="#151515"/>
<path d="M45.9043 285.973C45.7342 285.338 45.6491 285.02 45.7672 284.759C45.7888 284.712 45.8151 284.666 45.8456 284.624C46.0124 284.391 46.3299 284.306 46.965 284.136C47.6001 283.965 47.9176 283.88 48.1784 283.998C48.2261 284.02 48.2716 284.046 48.3142 284.077C48.5469 284.244 48.6319 284.561 48.8021 285.196C48.9723 285.831 49.0574 286.149 48.9392 286.41C48.9176 286.457 48.8914 286.503 48.8608 286.545C48.6941 286.778 48.3766 286.863 47.7415 287.033C47.1064 287.204 46.7888 287.289 46.5281 287.17C46.4804 287.149 46.4349 287.123 46.3923 287.092C46.1596 286.925 46.0745 286.608 45.9043 285.973Z" fill="#151515"/>
<path d="M47.1984 290.802C47.0283 290.167 46.9432 289.85 47.0613 289.589C47.0829 289.541 47.1092 289.496 47.1397 289.453C47.3065 289.22 47.624 289.135 48.2591 288.965C48.8942 288.795 49.2117 288.71 49.4725 288.828C49.5202 288.85 49.5657 288.876 49.6083 288.906C49.841 289.073 49.926 289.391 50.0962 290.026C50.2664 290.661 50.3515 290.979 50.2333 291.239C50.2117 291.287 50.1854 291.332 50.1549 291.375C49.9882 291.608 49.6706 291.693 49.0356 291.863C48.4005 292.033 48.0829 292.118 47.8222 292C47.7745 291.978 47.729 291.952 47.6864 291.922C47.4537 291.755 47.3686 291.437 47.1984 290.802Z" fill="#151515"/>
<path d="M48.4925 295.632C48.3224 294.997 48.2373 294.679 48.3554 294.419C48.377 294.371 48.4033 294.325 48.4338 294.283C48.6006 294.05 48.9181 293.965 49.5532 293.795C50.1883 293.625 50.5058 293.54 50.7666 293.658C50.8143 293.679 50.8598 293.706 50.9024 293.736C51.1351 293.903 51.2201 294.22 51.3903 294.855C51.5605 295.491 51.6456 295.808 51.5274 296.069C51.5058 296.117 51.4795 296.162 51.449 296.205C51.2823 296.437 50.9647 296.522 50.3296 296.693C49.6946 296.863 49.377 296.948 49.1163 296.83C49.0685 296.808 49.0231 296.782 48.9805 296.751C48.7478 296.585 48.6627 296.267 48.4925 295.632Z" fill="#151515"/>
<path d="M51.0798 283.336C50.9617 283.597 51.0468 283.914 51.2169 284.549C51.3871 285.184 51.4722 285.502 51.7049 285.669C51.7475 285.699 51.793 285.725 51.8407 285.747C52.1014 285.865 52.419 285.78 53.0541 285.61C53.6891 285.44 54.0067 285.355 54.1734 285.122C54.2039 285.079 54.2302 285.034 54.2518 284.986C54.37 284.725 54.2849 284.408 54.1147 283.773C53.9445 283.138 53.8595 282.82 53.6268 282.653C53.5842 282.623 53.5387 282.597 53.491 282.575C53.2302 282.457 52.9127 282.542 52.2776 282.712C51.6425 282.882 51.325 282.967 51.1582 283.2C51.1277 283.243 51.1014 283.288 51.0798 283.336Z" fill="#151515"/>
<path d="M52.511 289.379C52.3409 288.744 52.2558 288.426 52.3739 288.165C52.3955 288.118 52.4218 288.072 52.4523 288.03C52.619 287.797 52.9366 287.712 53.5717 287.542C54.2068 287.372 54.5243 287.286 54.7851 287.405C54.8328 287.426 54.8783 287.452 54.9209 287.483C55.1535 287.65 55.2386 287.967 55.4088 288.602C55.579 289.237 55.6641 289.555 55.5459 289.816C55.5243 289.863 55.498 289.909 55.4675 289.952C55.3008 290.184 54.9832 290.269 54.3481 290.439C53.7131 290.61 53.3955 290.695 53.1348 290.577C53.087 290.555 53.0416 290.529 52.999 290.498C52.7663 290.331 52.6812 290.014 52.511 289.379Z" fill="#151515"/>
<path d="M40.4546 286.183C40.3365 286.444 40.4216 286.761 40.5917 287.396C40.7619 288.031 40.847 288.349 41.0797 288.516C41.1223 288.546 41.1678 288.572 41.2155 288.594C41.4762 288.712 41.7938 288.627 42.4289 288.457C43.064 288.287 43.3815 288.202 43.5482 287.969C43.5788 287.926 43.605 287.881 43.6266 287.833C43.7448 287.572 43.6597 287.255 43.4895 286.62C43.3194 285.985 43.2343 285.667 43.0016 285.5C42.959 285.47 42.9135 285.444 42.8658 285.422C42.605 285.304 42.2875 285.389 41.6524 285.559C41.0173 285.729 40.6998 285.814 40.533 286.047C40.5025 286.09 40.4763 286.135 40.4546 286.183Z" fill="#151515"/>
<path d="M41.8858 292.226C41.7157 291.591 41.6306 291.273 41.7487 291.012C41.7703 290.965 41.7966 290.919 41.8271 290.877C41.9939 290.644 42.3114 290.559 42.9465 290.389C43.5816 290.219 43.8991 290.133 44.1599 290.252C44.2076 290.273 44.2531 290.299 44.2957 290.33C44.5284 290.497 44.6134 290.814 44.7836 291.449C44.9538 292.084 45.0389 292.402 44.9207 292.663C44.8991 292.71 44.8729 292.756 44.8423 292.799C44.6756 293.031 44.3581 293.116 43.723 293.286C43.0879 293.457 42.7703 293.542 42.5096 293.424C42.4619 293.402 42.4164 293.376 42.3738 293.345C42.1411 293.178 42.056 292.861 41.8858 292.226Z" fill="#151515"/>
<path d="M39.1605 281.353C39.0424 281.614 39.1275 281.931 39.2977 282.567C39.4678 283.202 39.5529 283.519 39.7856 283.686C39.8282 283.716 39.8737 283.743 39.9214 283.764C40.1821 283.882 40.4997 283.797 41.1348 283.627C41.7699 283.457 42.0874 283.372 42.2541 283.139C42.2847 283.097 42.3109 283.051 42.3326 283.003C42.4507 282.743 42.3656 282.425 42.1954 281.79C42.0253 281.155 41.9402 280.837 41.7075 280.671C41.6649 280.64 41.6194 280.614 41.5717 280.592C41.311 280.474 40.9934 280.559 40.3583 280.729C39.7232 280.9 39.4057 280.985 39.2389 281.217C39.2084 281.26 39.1822 281.305 39.1605 281.353Z" fill="#151515"/>
<path d="M49.9228 279.72C49.7527 279.084 49.6676 278.767 49.7857 278.506C49.8073 278.458 49.8336 278.413 49.8641 278.37C50.0309 278.138 50.3484 278.053 50.9835 277.882C51.6186 277.712 51.9361 277.627 52.1969 277.745C52.2446 277.767 52.2901 277.793 52.3327 277.824C52.5654 277.99 52.6504 278.308 52.8206 278.943C52.9908 279.578 53.0759 279.896 52.9577 280.156C52.9361 280.204 52.9098 280.25 52.8793 280.292C52.7126 280.525 52.395 280.61 51.76 280.78C51.1249 280.95 50.8073 281.035 50.5466 280.917C50.4989 280.896 50.4534 280.869 50.4108 280.839C50.1781 280.672 50.093 280.355 49.9228 279.72Z" fill="#151515"/>
<path d="M53.4555 292.873C53.3357 293 53.277 293.173 53.1596 293.52C53.015 293.948 52.9427 294.161 52.9821 294.368C52.9894 294.407 52.9996 294.445 53.0125 294.482C53.0817 294.68 53.2513 294.829 53.5903 295.127C53.8654 295.369 54.003 295.49 54.1703 295.54C54.2017 295.55 54.2336 295.557 54.266 295.562C54.4382 295.592 54.615 295.544 54.9688 295.45L55.6422 295.269C56.2773 295.099 56.5949 295.014 56.7616 294.781C56.7921 294.739 56.8184 294.693 56.84 294.645C56.9582 294.385 56.8731 294.067 56.7029 293.432C56.5327 292.797 56.4476 292.479 56.215 292.313C56.1724 292.282 56.1269 292.256 56.0792 292.234C55.8184 292.116 55.5009 292.201 54.8658 292.371L54.1923 292.552C53.8386 292.647 53.6617 292.694 53.5272 292.805C53.5019 292.826 53.478 292.849 53.4555 292.873Z" fill="#151515"/>
</g>
<g opacity="0.05">
<path fill-rule="evenodd" clip-rule="evenodd" d="M256.379 246.313L259.277 247.09C260.877 247.519 262.522 246.569 262.951 244.969C263.334 243.537 262.891 242.081 261.916 241.104L262.572 238.655C263.43 235.455 261.53 232.165 258.329 231.307C255.128 230.449 251.838 232.349 250.981 235.55L250.325 237.999C248.992 238.357 247.879 239.396 247.496 240.827C247.067 242.428 248.017 244.073 249.617 244.502L252.515 245.278C252.229 246.345 252.862 247.442 253.929 247.728C254.996 248.014 256.093 247.38 256.379 246.313ZM252.913 236.067C253.484 233.933 255.678 232.667 257.812 233.239C259.945 233.81 261.212 236.004 260.64 238.138L259.819 241.2C259.71 241.61 259.87 242.044 260.219 242.284C260.9 242.751 261.244 243.611 261.019 244.451C260.876 244.984 260.328 245.301 259.794 245.158L250.135 242.57C249.601 242.427 249.285 241.879 249.428 241.345C249.653 240.505 250.381 239.932 251.204 239.868C251.626 239.835 251.982 239.539 252.092 239.13L252.913 236.067Z" fill="#151515"/>
</g>
<g opacity="0.05" clip-path="url(#clip3_7434_5235)">
<path fill-rule="evenodd" clip-rule="evenodd" d="M179.55 191.633C180.775 191.013 181.74 189.895 182.124 188.465C182.838 185.797 181.255 183.056 178.588 182.341C175.921 181.626 173.179 183.209 172.464 185.877C172.081 187.306 172.358 188.758 173.109 189.907C170.122 190.415 167.555 192.607 166.719 195.725C166.284 197.349 167.442 198.675 168.63 199.534C169.898 200.45 171.647 201.187 173.412 201.66C175.176 202.132 177.059 202.369 178.615 202.21C180.074 202.06 181.739 201.49 182.174 199.866C183.01 196.748 181.883 193.566 179.55 191.633ZM174.396 186.394C174.825 184.794 176.47 183.844 178.07 184.273C179.671 184.702 180.621 186.347 180.192 187.947C179.763 189.548 178.118 190.497 176.517 190.068C174.917 189.64 173.967 187.995 174.396 186.394ZM176 192C172.799 191.143 169.509 193.042 168.651 196.243C168.569 196.551 168.714 197.127 169.802 197.913C170.811 198.642 172.313 199.295 173.929 199.728C175.546 200.161 177.173 200.347 178.411 200.22C179.746 200.083 180.16 199.657 180.242 199.349C181.1 196.148 179.201 192.858 176 192Z" fill="#151515"/>
</g>
<g opacity="0.05">
<path d="M70.668 230.022C70.209 229.714 69.5879 229.837 69.2807 230.296C68.9734 230.755 69.0964 231.376 69.5553 231.684C70.6463 232.414 71.5857 233.353 72.3161 234.444C72.6234 234.903 73.2445 235.026 73.7034 234.719C74.1623 234.412 74.2853 233.791 73.9781 233.332C73.1022 232.024 71.9761 230.897 70.668 230.022Z" fill="#151515"/>
<path d="M58.4444 231.684C58.9033 231.376 59.0263 230.755 58.7191 230.296C58.4118 229.837 57.7907 229.714 57.3318 230.022C56.0236 230.897 54.8975 232.024 54.0217 233.332C53.7144 233.791 53.8374 234.412 54.2963 234.719C54.7553 235.026 55.3764 234.903 55.6836 234.444C56.414 233.353 57.3535 232.414 58.4444 231.684Z" fill="#151515"/>
<path d="M63.9999 235C64.5522 235 64.9999 235.448 64.9999 236V239.586L67.707 242.293C68.0975 242.683 68.0975 243.316 67.707 243.707C67.3165 244.097 66.6833 244.097 66.2928 243.707L63.2928 240.707C63.1052 240.519 62.9999 240.265 62.9999 240V236C62.9999 235.448 63.4476 235 63.9999 235Z" fill="#151515"/>
<path fill-rule="evenodd" clip-rule="evenodd" d="M54.9999 240C54.9999 235.029 59.0293 231 63.9999 231C68.9704 231 72.9999 235.029 72.9999 240C72.9999 244.97 68.9704 249 63.9999 249C59.0293 249 54.9999 244.97 54.9999 240ZM63.9999 233C60.1339 233 56.9999 236.134 56.9999 240C56.9999 243.866 60.1339 247 63.9999 247C67.8659 247 70.9999 243.866 70.9999 240C70.9999 236.134 67.8659 233 63.9999 233Z" fill="#151515"/>
</g>
<g opacity="0.05">
<path d="M6.66812 -9.97832C6.20919 -10.2856 5.58808 -10.1626 5.28083 -9.70368C4.97358 -9.24474 5.09655 -8.62363 5.55548 -8.31639C6.64643 -7.58602 7.58591 -6.64654 8.31628 -5.55559C8.62352 -5.09666 9.24463 -4.9737 9.70357 -5.28094C10.1625 -5.58819 10.2855 -6.2093 9.97821 -6.66823C9.10241 -7.97642 7.9763 -9.10252 6.66812 -9.97832Z" fill="#151515"/>
<path d="M0 -5.00014C0.552285 -5.00014 1 -4.55242 1 -4.00014V-0.414351L3.70711 2.29276C4.09763 2.68328 4.09763 3.31645 3.70711 3.70697C3.31658 4.09749 2.68342 4.09749 2.29289 3.70697L-0.707107 0.706969C-0.894643 0.519433 -1 0.265079 -1 -0.000137329V-4.00014C-1 -4.55242 -0.552285 -5.00014 0 -5.00014Z" fill="#151515"/>
<path fill-rule="evenodd" clip-rule="evenodd" d="M-9 -0.000137329C-9 -4.9707 -4.97056 -9.00014 0 -9.00014C4.97056 -9.00014 9 -4.9707 9 -0.000137329C9 4.97043 4.97056 8.99986 0 8.99986C-4.97056 8.99986 -9 4.97043 -9 -0.000137329ZM0 -7.00014C-3.86599 -7.00014 -7 -3.86613 -7 -0.000137329C-7 3.86586 -3.86599 6.99986 0 6.99986C3.86599 6.99986 7 3.86586 7 -0.000137329C7 -3.86613 3.86599 -7.00014 0 -7.00014Z" fill="#151515"/>
</g>
<g opacity="0.05">
<path d="M294.668 -9.97832C294.209 -10.2856 293.588 -10.1626 293.281 -9.70368C292.974 -9.24474 293.097 -8.62363 293.555 -8.31639C294.646 -7.58602 295.586 -6.64654 296.316 -5.55559C296.624 -5.09666 297.245 -4.9737 297.704 -5.28094C298.162 -5.58819 298.285 -6.2093 297.978 -6.66823C297.102 -7.97642 295.976 -9.10252 294.668 -9.97832Z" fill="#151515"/>
<path d="M288 -5.00014C288.552 -5.00014 289 -4.55242 289 -4.00014V-0.414351L291.707 2.29276C292.098 2.68328 292.098 3.31645 291.707 3.70697C291.317 4.09749 290.683 4.09749 290.293 3.70697L287.293 0.706969C287.105 0.519433 287 0.265079 287 -0.000137329V-4.00014C287 -4.55242 287.448 -5.00014 288 -5.00014Z" fill="#151515"/>
<path fill-rule="evenodd" clip-rule="evenodd" d="M279 -0.000137329C279 -4.9707 283.029 -9.00014 288 -9.00014C292.971 -9.00014 297 -4.9707 297 -0.000137329C297 4.97043 292.971 8.99986 288 8.99986C283.029 8.99986 279 4.97043 279 -0.000137329ZM288 -7.00014C284.134 -7.00014 281 -3.86613 281 -0.000137329C281 3.86586 284.134 6.99986 288 6.99986C291.866 6.99986 295 3.86586 295 -0.000137329C295 -3.86613 291.866 -7.00014 288 -7.00014Z" fill="#151515"/>
</g>
<g opacity="0.05">
<path d="M6.66812 278.022C6.20919 277.714 5.58808 277.837 5.28083 278.296C4.97358 278.755 5.09655 279.376 5.55548 279.684C6.64643 280.414 7.58591 281.353 8.31628 282.444C8.62352 282.903 9.24463 283.026 9.70357 282.719C10.1625 282.412 10.2855 281.791 9.97821 281.332C9.10241 280.024 7.9763 278.897 6.66812 278.022Z" fill="#151515"/>
<path d="M0 283C0.552285 283 1 283.448 1 284V287.586L3.70711 290.293C4.09763 290.683 4.09763 291.316 3.70711 291.707C3.31658 292.097 2.68342 292.097 2.29289 291.707L-0.707107 288.707C-0.894643 288.519 -1 288.265 -1 288V284C-1 283.448 -0.552285 283 0 283Z" fill="#151515"/>
<path fill-rule="evenodd" clip-rule="evenodd" d="M-9 288C-9 283.029 -4.97056 279 0 279C4.97056 279 9 283.029 9 288C9 292.97 4.97056 297 0 297C-4.97056 297 -9 292.97 -9 288ZM0 281C-3.86599 281 -7 284.134 -7 288C-7 291.866 -3.86599 295 0 295C3.86599 295 7 291.866 7 288C7 284.134 3.86599 281 0 281Z" fill="#151515"/>
</g>
<g opacity="0.05">
<path d="M294.668 278.022C294.209 277.714 293.588 277.837 293.281 278.296C292.974 278.755 293.097 279.376 293.555 279.684C294.646 280.414 295.586 281.353 296.316 282.444C296.624 282.903 297.245 283.026 297.704 282.719C298.162 282.412 298.285 281.791 297.978 281.332C297.102 280.024 295.976 278.897 294.668 278.022Z" fill="#151515"/>
<path d="M288 283C288.552 283 289 283.448 289 284V287.586L291.707 290.293C292.098 290.683 292.098 291.316 291.707 291.707C291.317 292.097 290.683 292.097 290.293 291.707L287.293 288.707C287.105 288.519 287 288.265 287 288V284C287 283.448 287.448 283 288 283Z" fill="#151515"/>
<path fill-rule="evenodd" clip-rule="evenodd" d="M279 288C279 283.029 283.029 279 288 279C292.971 279 297 283.029 297 288C297 292.97 292.971 297 288 297C283.029 297 279 292.97 279 288ZM288 281C284.134 281 281 284.134 281 288C281 291.866 284.134 295 288 295C291.866 295 295 291.866 295 288C295 284.134 291.866 281 288 281Z" fill="#151515"/>
</g>
<g opacity="0.05" clip-path="url(#clip4_7434_5235)">
<path d="M161.717 242.249C161.691 242.447 161.751 242.672 161.872 243.122C161.992 243.572 162.053 243.797 162.174 243.955C162.335 244.165 162.574 244.303 162.836 244.337C163.034 244.363 163.259 244.303 163.709 244.182L165.641 243.665C166.091 243.544 166.316 243.484 166.474 243.363C166.684 243.201 166.822 242.963 166.856 242.7C166.882 242.503 166.822 242.278 166.701 241.828C166.581 241.377 166.52 241.152 166.399 240.995C166.238 240.784 165.999 240.647 165.736 240.612C165.539 240.586 165.314 240.646 164.864 240.767L162.932 241.285C162.482 241.405 162.257 241.465 162.099 241.587C161.889 241.748 161.751 241.986 161.717 242.249Z" fill="#151515"/>
<path fill-rule="evenodd" clip-rule="evenodd" d="M151.746 232.376C151.212 232.519 150.895 233.068 151.038 233.601L151.233 234.327C150.529 234.691 150.037 235.114 149.705 235.689C148.877 237.124 149.365 238.945 150.341 242.588L150.599 243.554C151.576 247.197 152.064 249.018 153.498 249.846C154.933 250.675 156.755 250.187 160.397 249.211L164.261 248.175C167.904 247.199 169.725 246.711 170.554 245.276C171.382 243.842 170.894 242.02 169.918 238.377L169.659 237.412C168.683 233.769 168.195 231.947 166.76 231.119C166.185 230.787 165.548 230.666 164.756 230.704L164.561 229.978C164.418 229.444 163.87 229.128 163.337 229.271C162.803 229.413 162.487 229.962 162.63 230.495L162.768 231.012C161.946 231.196 160.991 231.452 159.861 231.755L155.997 232.79C154.868 233.093 153.913 233.349 153.109 233.6L152.97 233.083C152.827 232.55 152.279 232.233 151.746 232.376ZM160.379 233.687L156.515 234.722C154.639 235.224 153.428 235.554 152.566 235.913C151.759 236.25 151.545 236.502 151.437 236.689C151.329 236.875 151.218 237.187 151.33 238.055C151.372 238.383 151.439 238.746 151.531 239.163L166.916 235.041C166.787 234.634 166.663 234.285 166.536 233.98C166.199 233.173 165.947 232.959 165.76 232.851C165.574 232.743 165.262 232.632 164.394 232.744C163.469 232.863 162.255 233.184 160.379 233.687ZM152.272 242.07C152.18 241.727 152.094 241.405 152.015 241.104L167.467 236.964C167.549 237.264 167.635 237.586 167.727 237.929L167.986 238.895C168.489 240.771 168.81 241.985 168.929 242.911C169.041 243.779 168.929 244.09 168.822 244.276C168.714 244.463 168.5 244.715 167.692 245.052C166.831 245.412 165.619 245.741 163.743 246.244L159.88 247.279C158.004 247.782 156.79 248.102 155.864 248.222C154.996 248.333 154.685 248.222 154.498 248.114C154.312 248.007 154.06 247.793 153.723 246.985C153.363 246.124 153.034 244.912 152.531 243.036L152.272 242.07Z" fill="#151515"/>
</g>
<g opacity="0.05" clip-path="url(#clip5_7434_5235)">
<path d="M243.614 -5.75889C243.459 -5.1819 243.067 -4.73177 242.571 -4.48525C242.15 -4.27592 241.654 -4.2134 241.164 -4.34468C240.674 -4.47596 240.276 -4.77821 240.016 -5.17004C239.891 -5.35751 239.798 -5.56547 239.743 -5.78503C239.661 -6.10593 239.658 -6.45158 239.75 -6.79417C239.941 -7.50681 241.2 -8.76027 242.016 -9.51415C242.35 -9.82279 242.876 -9.68173 243.011 -9.2475C243.34 -8.18688 243.804 -6.47154 243.614 -5.75889Z" fill="#151515"/>
<path fill-rule="evenodd" clip-rule="evenodd" d="M232.911 -3.79029C234.346 -4.61872 236.167 -4.13068 239.81 -3.15461L241.742 -2.63697C245.384 -1.66091 247.206 -1.17287 248.034 0.262003C248.863 1.69688 248.375 3.51825 247.399 7.16098C246.911 8.98235 246.667 9.89303 245.949 10.3072C245.232 10.7215 244.321 10.4774 242.5 9.98941L232.84 7.40122C231.019 6.91319 230.108 6.66917 229.694 5.95173C229.28 5.23429 229.524 4.32361 230.012 2.50224C230.988 -1.14049 231.476 -2.96186 232.911 -3.79029ZM232.23 1.95796L232.204 2.05425L232.203 2.05395L231.426 4.95173L244.949 8.5752L245.726 5.67742L245.724 5.67712L245.75 5.58065C245.421 5.56031 245.09 5.50704 244.76 5.41854C243.672 5.12723 242.765 4.49835 242.121 3.67636C241.151 4.06599 240.051 4.15693 238.964 3.86562C237.877 3.57432 236.97 2.94544 236.325 2.12345C235.356 2.51307 234.256 2.60402 233.169 2.31271C232.838 2.22421 232.525 2.10463 232.23 1.95796ZM246.241 3.58388C246.316 3.23006 246.373 2.91513 246.41 2.62794C246.521 1.75983 246.41 1.44847 246.302 1.262C246.195 1.07554 245.981 0.823286 245.173 0.486111C244.312 0.126573 243.1 -0.202457 241.224 -0.705124L239.292 -1.22276C237.416 -1.72543 236.203 -2.04625 235.277 -2.16554C234.409 -2.2774 234.097 -2.16589 233.911 -2.05824C233.724 -1.95058 233.472 -1.73669 233.135 -0.928953C233.023 -0.661731 232.915 -0.360793 232.803 -0.0167629C233.067 0.158366 233.363 0.294356 233.686 0.380858C234.552 0.612729 235.429 0.442516 236.123 -0.0180252C236.362 -0.176639 236.657 -0.224965 236.934 -0.150719C237.212 -0.0764738 237.443 0.113194 237.571 0.370069C237.942 1.11592 238.616 1.7019 239.482 1.93377C240.347 2.16564 241.224 1.99543 241.918 1.53489C242.157 1.37628 242.453 1.32795 242.73 1.40219C243.007 1.47644 243.239 1.66611 243.367 1.92298C243.737 2.66883 244.412 3.25482 245.277 3.48669C245.6 3.57319 245.925 3.6036 246.241 3.58388Z" fill="#151515"/>
</g>
<g opacity="0.05" clip-path="url(#clip6_7434_5235)">
<path d="M243.614 282.242C243.459 282.819 243.067 283.269 242.571 283.515C242.15 283.725 241.654 283.787 241.164 283.656C240.674 283.525 240.276 283.222 240.016 282.83C239.891 282.643 239.798 282.435 239.743 282.215C239.661 281.895 239.658 281.549 239.75 281.206C239.941 280.494 241.2 279.24 242.016 278.486C242.35 278.178 242.876 278.319 243.011 278.753C243.34 279.814 243.804 281.529 243.614 282.242Z" fill="#151515"/>
<path fill-rule="evenodd" clip-rule="evenodd" d="M232.911 284.21C234.346 283.382 236.167 283.87 239.81 284.846L241.742 285.364C245.384 286.34 247.206 286.828 248.034 288.262C248.863 289.697 248.375 291.519 247.399 295.161C246.911 296.983 246.667 297.894 245.949 298.308C245.232 298.722 244.321 298.478 242.5 297.99L232.84 295.402C231.019 294.914 230.108 294.67 229.694 293.952C229.28 293.235 229.524 292.324 230.012 290.503C230.988 286.86 231.476 285.039 232.911 284.21ZM232.23 289.958L232.204 290.055L232.203 290.054L231.426 292.952L244.949 296.576L245.726 293.678L245.724 293.678L245.75 293.581C245.421 293.561 245.09 293.508 244.76 293.419C243.672 293.128 242.765 292.499 242.121 291.677C241.151 292.066 240.051 292.157 238.964 291.866C237.877 291.575 236.97 290.946 236.325 290.124C235.356 290.514 234.256 290.605 233.169 290.313C232.838 290.225 232.525 290.105 232.23 289.958ZM246.241 291.584C246.316 291.231 246.373 290.916 246.41 290.628C246.521 289.76 246.41 289.449 246.302 289.262C246.195 289.076 245.981 288.824 245.173 288.487C244.312 288.127 243.1 287.798 241.224 287.295L239.292 286.778C237.416 286.275 236.203 285.954 235.277 285.835C234.409 285.723 234.097 285.835 233.911 285.942C233.724 286.05 233.472 286.264 233.135 287.072C233.023 287.339 232.915 287.64 232.803 287.984C233.067 288.159 233.363 288.295 233.686 288.381C234.552 288.613 235.429 288.443 236.123 287.982C236.362 287.824 236.657 287.776 236.934 287.85C237.212 287.924 237.443 288.114 237.571 288.371C237.942 289.116 238.616 289.702 239.482 289.934C240.347 290.166 241.224 289.996 241.918 289.535C242.157 289.377 242.453 289.328 242.73 289.403C243.007 289.477 243.239 289.667 243.367 289.923C243.737 290.669 244.412 291.255 245.277 291.487C245.6 291.574 245.925 291.604 246.241 291.584Z" fill="#151515"/>
</g>
<g opacity="0.05">
<path d="M118.365 246.366C114.85 249.881 109.152 249.881 105.637 246.366C102.122 242.851 102.122 237.153 105.637 233.638C109.152 230.123 114.85 230.123 118.365 233.638C118.935 234.208 119.412 234.835 119.797 235.501L122.158 234.138C122.929 233.693 123.854 234.403 123.624 235.263L122.178 240.659C122.035 241.192 121.487 241.509 120.953 241.366L115.558 239.92C114.697 239.689 114.545 238.534 115.316 238.088L118.065 236.501C117.765 235.983 117.394 235.496 116.951 235.052C114.217 232.319 109.785 232.319 107.051 235.052C104.318 237.786 104.318 242.218 107.051 244.952C109.785 247.685 114.217 247.686 116.951 244.952C117.341 244.561 117.974 244.561 118.365 244.952C118.754 245.34 118.755 245.969 118.371 246.36L118.367 246.364L118.365 246.366Z" fill="#151515"/>
</g>
<g opacity="0.05">
<path fill-rule="evenodd" clip-rule="evenodd" d="M230.732 184.34C231.527 184.799 231.907 185.74 231.655 186.622L231.326 187.77L232.485 188.06C233.375 188.282 234 189.082 234 190V194C234 194.918 233.375 195.718 232.485 195.94L231.326 196.23L231.655 197.378C231.907 198.261 231.527 199.201 230.732 199.66L227.268 201.66C226.473 202.119 225.468 201.978 224.83 201.319L224 200.46L223.17 201.318C222.532 201.978 221.527 202.119 220.732 201.66L217.268 199.66C216.473 199.201 216.093 198.261 216.345 197.378L216.674 196.23L215.515 195.94C214.625 195.718 214 194.918 214 194V190C214 189.082 214.625 188.282 215.515 188.06L216.674 187.77L216.345 186.622C216.093 185.74 216.473 184.799 217.268 184.34L220.732 182.34C221.527 181.881 222.532 182.022 223.17 182.682L224 183.54L224.83 182.682C225.468 182.022 226.473 181.881 227.268 182.34L230.732 184.34ZM229.404 187.22L229.732 186.072L226.268 184.072L225.438 184.93C224.762 185.629 224.424 185.979 224 185.979C223.576 185.979 223.238 185.629 222.562 184.93L221.732 184.072L218.268 186.072L218.596 187.22C218.864 188.155 218.997 188.622 218.785 188.989C218.573 189.357 218.102 189.475 217.159 189.71L216 190V194L217.159 194.29C218.102 194.526 218.573 194.643 218.785 195.011C218.997 195.378 218.864 195.845 218.596 196.78L218.268 197.928L221.732 199.928L222.562 199.07C223.238 198.371 223.576 198.021 224 198.021C224.424 198.021 224.762 198.371 225.438 199.07L226.268 199.928L229.732 197.928L229.404 196.78C229.136 195.845 229.002 195.378 229.215 195.011C229.427 194.643 229.898 194.526 230.841 194.29L232 194V190L230.841 189.71C229.898 189.475 229.427 189.357 229.215 188.989C229.003 188.622 229.136 188.155 229.404 187.22Z" fill="#151515"/>
<path fill-rule="evenodd" clip-rule="evenodd" d="M224 190C222.895 190 222 190.895 222 192C222 193.105 222.895 194 224 194C225.105 194 226 193.105 226 192C226 190.895 225.105 190 224 190ZM220 192C220 189.791 221.791 188 224 188C226.209 188 228 189.791 228 192C228 194.209 226.209 196 224 196C221.791 196 220 194.209 220 192Z" fill="#151515"/>
</g>
<g opacity="0.05" clip-path="url(#clip7_7434_5235)">
<path fill-rule="evenodd" clip-rule="evenodd" d="M22.7956 101.548L23.5087 98.887C24.0474 96.8765 24.1044 96.4849 24.0398 96.142C23.9752 95.7992 23.7796 95.4552 22.5462 93.7786L21.0285 91.7155C20.0899 90.4396 19.4894 89.6291 18.9676 89.0744C18.483 88.5593 18.2237 88.4407 18.0388 88.3911C17.854 88.3416 17.5701 88.3147 16.8929 88.5185C16.1636 88.738 15.2383 89.1397 13.7876 89.7753L11.4416 90.8031C9.53517 91.6384 9.19373 91.8385 8.96636 92.1031C8.739 92.3677 8.59258 92.7354 8.05388 94.7459L7.34083 97.407C7.04239 98.5208 6.85119 99.2404 6.74924 99.7997C6.6515 100.336 6.67215 100.55 6.69523 100.659C6.78304 101.072 6.99939 101.447 7.31326 101.729C7.39574 101.803 7.57081 101.928 8.08413 102.112C8.55491 102.28 9.16749 102.451 10.0658 102.692L10.8422 99.7946C10.8489 99.7696 10.8557 99.7442 10.8625 99.7185C10.9658 99.3323 11.0887 98.8725 11.2478 98.4914C11.4398 98.0313 11.7885 97.4171 12.4988 97.007C13.2091 96.5969 13.9153 96.6021 14.4098 96.6658C14.8194 96.7185 15.279 96.842 15.6651 96.9457C15.6908 96.9526 15.7162 96.9594 15.7412 96.9661C15.7662 96.9728 15.7916 96.9796 15.8173 96.9865C16.2035 97.0897 16.6633 97.2126 17.0444 97.3717C17.5044 97.5637 18.1186 97.9124 18.5287 98.6227C18.9388 99.3331 18.9337 100.039 18.87 100.534C18.8172 100.943 18.6937 101.403 18.59 101.789C18.5831 101.815 18.5763 101.84 18.5696 101.865L17.7932 104.763C18.6919 105.003 19.3077 105.161 19.7995 105.251C20.3358 105.349 20.5499 105.328 20.6585 105.305C21.0716 105.217 21.4463 105.001 21.7289 104.687C21.8032 104.604 21.9281 104.429 22.1116 103.916C22.303 103.381 22.4972 102.662 22.7956 101.548ZM7.44941 90.7997C6.85548 91.4909 6.611 92.4034 6.12203 94.2282L5.40898 96.8894C4.82917 99.0532 4.53927 100.135 4.73893 101.075C4.91456 101.901 5.34725 102.65 5.975 103.215C6.68865 103.858 7.77059 104.148 9.93447 104.728C10.4754 104.873 10.7459 104.945 10.9808 104.895C11.1873 104.851 11.3747 104.743 11.516 104.586C11.6766 104.408 11.7491 104.137 11.8941 103.596L12.774 100.312C13.0181 99.4015 13.1401 98.9462 13.4988 98.7391C13.8575 98.532 14.3128 98.654 15.2235 98.898C16.1342 99.142 16.5896 99.264 16.7967 99.6227C17.0038 99.9815 16.8818 100.437 16.6377 101.347L15.7578 104.632C15.6128 105.173 15.5403 105.443 15.5902 105.678C15.6342 105.884 15.7423 106.072 15.8993 106.213C16.0777 106.374 16.3482 106.446 16.8891 106.591C19.053 107.171 20.1349 107.461 21.0743 107.261C21.9005 107.086 22.65 106.653 23.2152 106.025C23.8578 105.312 24.1477 104.23 24.7275 102.066L25.4405 99.4046C25.9295 97.5798 26.174 96.6673 26.0053 95.7717C25.8365 94.8761 25.2768 94.1152 24.1572 92.5934L22.6395 90.5303C20.821 88.0584 19.9118 86.8224 18.5565 86.4593C17.2012 86.0961 15.7958 86.7119 12.985 87.9434L10.639 88.9712C8.90856 89.7294 8.04334 90.1085 7.44941 90.7997Z" fill="#151515"/>
</g>
</g>
</g>
<defs>
<clipPath id="clip0_7434_5235">
<rect width="288" height="288" fill="white"/>
</clipPath>
<clipPath id="clip1_7434_5235">
<rect width="288" height="288" fill="white"/>
</clipPath>
<clipPath id="clip2_7434_5235">
<rect width="24" height="24" fill="white" transform="translate(257.303 183.515) rotate(-15)"/>
</clipPath>
<clipPath id="clip3_7434_5235">
<rect width="24" height="24" fill="white" transform="translate(167.515 177.303) rotate(15)"/>
</clipPath>
<clipPath id="clip4_7434_5235">
<rect width="24" height="24" fill="white" transform="translate(145.303 231.515) rotate(-15)"/>
</clipPath>
<clipPath id="clip5_7434_5235">
<rect width="24" height="24" fill="white" transform="translate(231.515 -14.6973) rotate(15)"/>
</clipPath>
<clipPath id="clip6_7434_5235">
<rect width="24" height="24" fill="white" transform="translate(231.515 273.303) rotate(15)"/>
</clipPath>
<clipPath id="clip7_7434_5235">
<rect width="24" height="24" fill="white" transform="translate(7.51465 81.3032) rotate(15)"/>
</clipPath>
</defs>
</svg>
